<?xml version="1.0" standalone="no"?><!DOCTYPE svg PUBLIC "-//W3C//DTD SVG 1.1//EN" "http://www.w3.org/Graphics/SVG/1.1/DTD/svg11.dtd" ><svg xmlns="http://www.w3.org/2000/svg"><metadata></metadata><defs><font id="fonteditor" horiz-adv-x="1000"><font-face font-family="eryuYOS" font-weight="900" font-stretch="normal" units-per-em="1000" panose-1="4 11 9 0 0 0 0 0 0 0" ascent="880" descent="-120" x-height="0" bbox="6 -85 966 848" underline-thickness="0" underline-position="0" unicode-range="U+0030-9ad8" /><missing-glyph horiz-adv-x="1000" d="M945 824 L945 -66 L55 -66 L55 824 L945 824 ZM109 -12 L891 -12 L891 770 L109 770 L109 -12 Z" /><glyph glyph-name="zero" unicode="0" d="M129 140 Q50 251 47 430 Q47 436 47 442 Q50 586 137 691 Q218 795 371 806 L378 806 Q533 806 617 703 Q700 604 710 435 Q710 414 711 394 Q711 238 632 135 Q544 24 376 17 Q216 23 129 140 ZM171 436 Q168 295 224 223 Q280 153 376 141 Q478 147 536 218 Q592 286 586 438 Q577 540 522 609 Q473 677 375 679 Q293 679 235 603 Q177 530 171 436 Z" /><glyph glyph-name="one" unicode="1" d="M8 578 Q8 584 6 593 Q6 613 21 635 Q63 703 135 752 Q206 799 264 802 Q264 802 268 802 Q367 799 370 659 Q370 619 371 563 Q368 511 370 448 Q370 325 341 96 Q338 35 301 22 Q286 21 273 19 Q254 19 239 27 Q217 42 216 85 Q245 337 247 470 Q247 599 246 615 Q246 645 238 661 Q232 676 198 641 Q182 629 155 603 Q133 576 94 545 Q67 527 41 539 Q17 551 8 578 Z" /><glyph glyph-name="two" unicode="2" d="M48 624 Q48 630 46 637 Q46 654 60 673 Q116 741 245 779 Q304 794 359 796 Q421 796 475 774 Q574 734 605 617 Q614 482 527 400 Q440 322 310 244 Q184 171 195 148 Q225 105 561 159 Q596 168 616 163 Q637 157 646 129 L648 108 Q648 95 640 79 Q628 58 596 50 Q437 20 316 19 Q229 19 163 35 Q135 38 101 61 Q71 78 63 126 Q56 188 111 245 Q167 301 287 373 Q404 444 447 487 Q489 529 483 601 Q458 663 402 674 Q347 683 271 660 Q199 638 135 590 Q114 578 98 581 Q65 587 48 624 Z" /><glyph glyph-name="three" unicode="3" d="M64 707 Q70 725 102 742 Q177 778 273 787 Q303 787 330 789 Q389 789 438 778 Q473 769 506 751 Q535 733 563 699 Q586 668 601 601 Q607 534 579 491 Q554 451 504 428 Q633 395 636 263 Q636 254 635 243 Q629 159 583 107 Q540 58 445 31 Q402 19 342 18 Q333 18 321 18 Q251 21 190 39 Q135 57 76 92 Q54 110 49 140 Q49 143 49 148 Q49 172 65 191 Q86 212 104 212 Q122 212 147 199 Q192 174 233 154 Q275 138 336 136 Q395 136 455 167 Q505 194 508 260 Q508 322 466 339 Q423 357 369 358 Q317 358 252 359 Q188 359 188 422 Q188 475 236 479 Q284 481 332 481 Q379 481 411 482 Q441 482 465 515 Q480 553 472 592 Q466 630 436 647 Q412 659 352 663 Q294 666 240 654 Q188 644 147 629 Q119 617 95 627 Q74 636 64 664 Q60 688 64 707 Z" /><glyph glyph-name="four" unicode="4" d="M28 331 Q79 457 188 594 Q293 729 358 780 Q382 798 402 802 Q423 802 440 789 Q458 777 460 752 Q472 758 494 756 Q524 753 536 732 Q548 713 546 686 L500 285 Q550 288 607 295 Q640 298 658 286 Q673 274 677 251 Q677 245 678 240 Q678 225 671 211 Q662 196 611 185 Q553 176 487 171 L477 73 Q474 45 454 30 Q436 21 412 19 Q412 19 407 19 Q355 24 360 81 L369 165 Q276 162 174 167 Q24 173 21 279 Q21 303 28 331 ZM428 692 Q155 379 152 325 Q149 300 161 291 Q173 285 197 279 Q274 276 381 277 L428 692 Z" /><glyph glyph-name="five" unicode="5" d="M384 24 Q348 21 313 21 Q250 21 201 33 Q122 54 82 80 Q64 89 58 111 Q58 117 56 125 Q56 140 63 152 Q83 197 128 179 Q184 152 257 136 Q331 121 407 144 Q484 167 497 257 Q503 341 439 372 Q375 402 271 393 Q210 384 137 362 Q61 349 58 433 Q58 444 60 459 Q65 518 76 605 Q85 691 94 734 Q100 761 118 774 Q118 774 122 777 Q137 786 158 787 Q200 790 306 792 Q332 792 360 793 Q434 793 493 788 Q520 788 534 770 Q546 755 547 730 Q547 708 531 691 Q518 678 487 678 Q409 684 300 684 Q239 684 201 682 Q198 661 195 636 Q186 584 179 513 Q179 495 230 497 Q284 500 369 500 Q480 497 546 436 Q611 376 612 261 Q609 150 548 94 Q490 39 384 24 Z" /><glyph glyph-name="six" unicode="6" d="M500 649 Q221 729 175 474 Q187 483 203 491 Q265 530 352 531 Q469 531 548 464 Q622 400 625 273 Q619 150 539 83 Q463 19 340 16 Q175 24 106 132 Q51 222 48 362 Q51 386 50 410 Q62 542 96 613 Q128 684 198 734 Q269 785 362 786 Q365 786 372 786 Q461 786 530 761 Q563 749 571 732 Q580 719 576 693 Q573 674 557 657 Q542 645 500 649 ZM184 214 Q225 138 343 124 Q423 127 466 175 Q510 222 508 271 Q514 337 475 377 Q436 415 358 417 Q303 414 250 389 Q201 368 159 321 Q159 254 184 214 Z" /><glyph glyph-name="seven" unicode="7" d="M41 747 Q50 774 87 782 Q216 785 313 788 Q345 785 375 787 Q486 784 543 763 Q584 748 605 706 Q611 688 613 666 Q613 639 601 605 Q583 556 452 326 Q323 98 294 50 Q273 20 248 19 L246 19 Q200 22 185 66 Q179 84 190 104 Q214 160 346 387 Q475 612 474 640 Q471 663 437 667 Q373 676 85 658 Q51 667 40 693 Q37 705 36 718 Q36 733 41 747 Z" /><glyph glyph-name="eight" unicode="8" d="M135 734 Q209 796 344 799 Q476 799 550 750 Q624 701 627 604 Q630 544 599 498 Q569 455 491 420 Q644 371 647 236 Q647 233 647 228 Q643 113 553 63 Q468 20 350 17 Q344 17 337 17 Q229 17 143 64 Q58 115 51 226 Q51 232 50 237 Q50 282 81 327 Q116 377 188 415 Q130 450 100 480 Q70 510 63 584 Q63 670 135 734 ZM180 221 Q183 127 351 125 Q416 125 468 152 Q518 179 521 231 Q521 288 477 316 Q435 346 349 361 Q276 352 225 315 Q177 281 180 221 ZM240 508 Q296 475 346 470 Q396 479 451 514 Q504 546 501 605 Q492 688 344 689 Q292 689 238 661 Q189 633 187 583 Q187 543 240 508 Z" /><glyph glyph-name="nine" unicode="9" d="M300 806 Q446 806 525 729 Q605 653 612 523 Q612 457 602 374 Q590 295 551 221 Q512 148 428 86 Q346 28 310 19 Q289 13 269 11 Q269 11 264 11 Q243 14 230 30 Q220 48 217 71 Q217 95 240 112 Q452 216 474 322 Q459 313 440 304 Q382 274 307 271 Q175 271 109 344 Q45 418 34 523 Q34 652 107 730 Q181 802 300 806 ZM449 628 Q415 675 304 681 Q234 672 193 632 Q156 596 156 526 Q156 459 197 424 Q239 388 303 383 Q353 386 413 417 Q463 444 489 486 Q489 504 488 523 Q485 583 449 628 Z" /><glyph glyph-name="uni4E00" unicode="&#x4e00;" d="M442 327 Q208 321 139 311 Q133 313 127 310 Q93 312 75 337 Q63 354 64 370 Q64 385 74 401 Q95 433 132 438 Q222 446 452 453 L606 456 Q744 455 861 446 Q906 443 925 405 Q931 392 933 376 Q930 357 919 341 Q895 314 857 316 Q676 333 442 327 Z" /><glyph glyph-name="uni4E09" unicode="&#x4e09;" d="M446 623 Q227 620 162 611 Q125 607 104 637 Q83 666 103 697 Q123 727 157 730 Q240 736 456 742 Q503 741 547 743 Q705 742 837 731 Q878 730 897 693 Q911 659 891 633 Q867 606 832 609 Q666 627 446 623 ZM455 336 Q280 333 225 326 Q186 322 166 352 Q145 381 165 412 Q186 442 220 445 Q288 451 464 455 Q637 458 774 446 Q816 443 834 408 Q849 374 828 348 Q806 321 770 324 Q632 339 455 336 ZM444 29 Q216 20 147 11 Q143 11 136 10 Q106 10 89 35 Q80 52 78 66 Q78 81 87 95 Q105 124 141 129 Q228 138 453 148 Q677 157 852 145 Q893 142 912 107 Q918 94 920 79 Q917 61 907 47 Q885 20 849 22 Q672 37 444 29 Z" /><glyph glyph-name="uni4E0B" unicode="&#x4e0b;" d="M449 783 Q559 788 656 788 Q773 787 874 781 Q915 778 936 744 Q941 729 943 716 Q940 698 931 684 Q907 657 872 659 Q706 674 493 667 Q496 612 504 515 Q545 500 638 457 Q737 412 814 367 Q852 345 851 305 Q851 265 817 251 Q786 238 753 257 Q680 301 579 349 Q539 366 510 380 Q519 172 507 8 Q504 -36 470 -53 Q455 -59 441 -61 Q425 -61 409 -48 Q384 -24 385 11 Q400 179 391 399 Q382 587 374 662 Q187 653 125 644 Q88 638 65 667 Q58 684 55 699 Q55 714 63 728 Q81 757 117 763 Q212 772 449 783 Z" /><glyph glyph-name="uni4E86" unicode="&#x4e86;" d="M111 692 Q123 733 157 742 Q292 783 403 797 Q544 818 648 821 Q654 820 664 821 Q756 820 818 789 Q886 755 896 663 Q893 587 852 545 Q807 505 760 477 Q711 449 686 424 Q659 399 659 360 Q656 306 679 248 Q699 193 700 121 Q700 51 660 -26 Q641 -62 599 -65 Q596 -65 593 -65 Q554 -65 544 -33 Q532 2 554 43 Q580 100 578 148 Q575 196 554 249 Q533 302 537 369 Q537 419 569 462 Q599 503 650 536 Q698 569 732 590 Q765 613 767 642 Q764 687 691 690 Q619 693 436 680 Q345 668 207 623 Q161 611 129 631 Q108 646 107 670 Q107 681 111 692 Z" /><glyph glyph-name="uni4E8C" unicode="&#x4e8c;" d="M452 562 Q268 562 213 558 Q173 554 152 585 Q133 617 153 647 Q174 677 211 680 Q282 683 464 685 Q646 684 786 668 Q830 664 847 627 Q861 593 839 564 Q815 539 778 542 Q639 560 452 562 ZM444 93 Q210 90 140 81 Q134 81 130 80 Q97 80 79 108 Q70 123 69 140 Q69 154 79 170 Q100 200 136 204 Q223 212 455 216 Q683 219 863 202 Q908 199 925 162 Q931 147 932 135 Q929 116 918 100 Q897 78 864 76 Q861 78 857 76 Q679 97 444 93 Z" /><glyph glyph-name="uni4EE5" unicode="&#x4ee5;" d="M249 741 Q276 719 271 682 Q252 601 225 469 Q198 337 195 182 Q198 152 205 146 Q220 136 244 134 Q277 134 345 160 Q383 172 414 148 Q441 124 428 83 Q413 43 345 25 Q269 9 221 8 Q157 8 116 44 Q76 79 70 152 Q70 296 99 441 Q122 585 148 682 Q157 736 189 750 Q222 765 249 741 ZM353 535 Q329 567 322 575 Q300 605 313 638 Q324 671 362 671 Q398 671 420 644 Q429 632 455 599 Q479 566 495 539 Q513 502 495 469 Q474 436 440 440 Q406 446 390 478 Q375 504 353 535 ZM784 250 Q858 189 911 135 Q932 111 934 83 Q931 74 931 64 Q919 27 885 21 Q849 20 823 44 Q774 98 698 160 Q673 183 651 198 Q626 87 594 -11 Q579 -52 542 -63 Q533 -63 525 -64 Q500 -64 482 -43 Q463 -13 472 21 Q531 204 580 447 Q627 690 636 766 Q639 805 674 819 Q686 822 697 824 Q718 823 735 807 Q759 780 757 744 Q745 651 697 410 Q688 371 682 331 Q711 309 784 250 Z" /><glyph glyph-name="uni4F60" unicode="&#x4f60;" d="M588 329 Q585 424 580 488 Q577 523 605 548 Q632 571 666 553 Q699 534 703 488 Q706 422 711 318 Q714 215 699 60 Q693 9 678 -21 Q660 -50 635 -64 Q605 -82 576 -85 Q497 -85 438 -45 Q405 -27 399 10 Q395 45 421 63 Q447 80 483 63 Q504 54 528 45 Q552 38 562 43 Q570 48 576 92 Q591 233 588 329 ZM373 301 Q397 352 403 369 Q415 405 453 409 Q489 414 506 382 Q524 351 511 318 Q502 297 479 243 Q455 191 431 149 Q407 115 368 114 Q331 116 317 148 Q307 181 324 211 Q348 247 373 301 ZM805 228 Q781 269 772 282 Q753 314 769 346 Q786 378 822 373 Q858 369 877 340 Q886 324 913 279 Q937 236 955 199 Q958 183 961 169 Q958 147 947 129 Q925 99 890 107 Q857 116 844 149 Q829 185 805 228 ZM312 567 Q341 624 371 700 Q401 777 407 801 Q416 836 454 845 Q460 844 466 846 Q492 845 510 821 Q528 793 519 758 Q513 742 503 711 Q611 720 709 720 Q853 720 906 688 Q956 655 958 588 Q958 548 921 458 Q909 431 872 424 Q838 415 820 445 Q807 475 816 504 Q834 552 835 566 Q835 575 828 588 Q822 609 775 608 Q609 608 457 592 Q439 550 422 515 Q401 476 363 475 Q326 474 310 504 Q295 534 312 567 ZM74 628 Q107 646 146 675 Q184 702 196 713 Q226 739 262 725 Q297 710 296 673 Q296 636 268 613 L231 586 Q231 582 232 574 Q228 451 237 289 Q249 130 258 80 Q264 44 235 21 Q207 -3 175 17 Q145 35 140 70 Q131 132 118 291 Q109 411 108 511 Q86 508 64 520 Q39 537 35 567 Q35 572 36 575 Q39 611 74 628 Z" /><glyph glyph-name="uni505C" unicode="&#x505c;" d="M372 92 Q338 74 312 98 Q285 119 288 156 Q288 180 286 213 Q283 245 282 255 Q276 293 308 314 Q331 332 356 321 Q463 341 591 346 Q726 352 796 343 Q873 337 913 296 Q954 259 963 211 Q960 208 963 204 Q960 176 951 144 Q932 83 895 67 Q859 55 836 82 Q815 111 828 144 Q840 161 842 183 Q842 203 826 220 Q811 235 776 245 Q709 254 585 245 Q489 238 406 222 Q406 219 407 213 Q410 179 410 152 Q407 110 372 92 ZM601 202 Q679 205 743 200 Q782 197 796 166 Q811 136 790 113 Q769 92 739 94 L699 97 Q699 94 700 87 Q700 72 699 52 Q693 7 680 -19 Q665 -45 643 -58 Q622 -72 600 -76 Q588 -76 577 -78 Q534 -78 491 -56 Q463 -41 455 -11 Q446 21 469 37 Q492 54 523 41 Q538 38 557 34 Q571 31 579 36 Q585 41 592 79 L592 98 Q516 95 493 92 Q459 89 441 114 Q425 141 440 167 Q458 194 489 196 Q519 199 601 202 ZM894 668 Q762 680 594 677 Q423 674 375 666 Q341 662 319 689 Q300 719 318 746 Q336 775 370 777 Q429 783 578 788 Q578 812 599 829 Q613 843 633 844 Q645 843 658 837 Q688 822 697 790 Q807 790 897 782 Q936 779 953 746 Q959 733 961 720 Q961 704 948 689 Q929 667 894 668 ZM649 374 Q486 373 431 383 Q317 407 318 480 Q318 501 332 522 Q344 542 346 558 Q343 609 408 608 Q420 614 438 618 Q731 656 863 610 Q925 589 929 507 Q929 420 850 398 Q774 379 649 374 ZM490 475 Q552 469 646 470 Q807 467 807 507 Q807 543 668 541 Q583 541 485 528 Q454 525 433 524 Q427 514 428 501 Q428 482 490 475 ZM73 628 Q106 646 144 675 Q182 702 192 713 Q222 739 257 725 Q292 710 292 673 Q292 636 265 613 Q253 604 231 587 Q231 584 232 574 Q228 451 237 289 Q249 130 258 80 Q264 44 235 21 Q207 -3 175 17 Q145 35 140 70 Q131 132 118 291 Q109 411 108 511 Q86 508 65 520 Q37 537 35 567 Q35 572 36 575 Q39 611 73 628 Z" /><glyph glyph-name="uni5165" unicode="&#x5165;" d="M112 70 Q204 172 306 315 Q408 459 434 506 Q434 512 439 516 Q334 645 293 689 Q266 716 277 752 Q289 787 325 789 Q325 788 329 789 Q362 788 385 766 Q456 687 621 477 Q785 267 897 89 Q905 68 909 48 Q906 32 901 18 Q885 -18 850 -14 Q814 -11 796 20 Q688 200 518 416 Q479 356 396 238 Q297 97 207 -6 Q180 -32 152 -32 Q146 -29 141 -31 Q102 -25 96 10 Q96 16 94 25 Q94 49 112 70 Z" /><glyph glyph-name="uni5173" unicode="&#x5173;" d="M612 201 Q695 150 753 103 Q785 76 780 37 Q774 -1 741 -9 Q710 -18 681 5 Q623 52 542 104 L461 155 Q434 58 408 -28 Q393 -70 357 -77 Q350 -77 341 -79 Q314 -79 300 -58 Q279 -31 291 5 Q332 125 368 279 Q193 276 135 268 Q96 264 76 293 Q67 308 65 324 Q65 339 75 354 Q96 383 130 387 Q207 393 395 398 Q412 490 425 548 Q241 545 182 537 Q143 533 123 563 Q102 592 122 623 Q143 653 177 656 Q215 659 282 663 Q267 675 262 692 Q256 704 246 720 Q237 735 232 739 Q213 771 230 803 Q244 829 274 831 Q277 830 283 830 Q319 826 338 796 Q341 790 354 773 Q365 758 373 742 Q388 697 357 665 Q402 665 458 667 Q526 669 589 669 Q589 684 602 696 Q640 753 652 791 Q667 826 705 829 Q741 831 757 798 Q772 765 757 734 Q751 722 735 688 Q729 676 724 665 Q771 662 817 657 Q859 654 877 619 Q892 585 871 559 Q849 532 813 535 Q692 547 545 549 Q536 494 516 400 Q710 402 864 388 Q906 385 924 350 Q930 335 931 321 Q928 305 918 289 Q894 262 859 266 Q696 283 491 281 Q488 278 489 274 Q492 274 498 271 Q531 253 612 201 Z" /><glyph glyph-name="uni5206" unicode="&#x5206;" d="M233 25 Q266 120 295 245 L322 373 Q270 364 223 352 Q187 345 165 371 Q141 398 156 432 Q171 464 212 475 Q323 498 459 506 Q594 514 664 506 Q747 499 790 455 Q831 413 842 363 Q863 209 811 39 Q790 -23 754 -37 Q718 -52 695 -22 Q676 4 688 39 Q747 189 721 335 Q715 383 643 395 Q576 403 451 391 L445 391 L445 385 Q436 336 410 210 Q382 86 350 -10 Q335 -51 298 -58 Q289 -58 283 -60 Q255 -60 240 -37 Q224 -12 233 25 ZM833 691 Q889 640 907 625 Q931 606 933 575 Q930 569 932 563 Q926 527 888 520 Q852 514 824 535 Q802 553 743 606 Q685 659 647 703 Q617 738 631 775 Q643 813 679 814 Q682 814 685 814 Q717 814 738 789 Q777 744 833 691 ZM194 699 Q248 761 262 782 Q282 814 318 809 Q354 805 361 770 Q370 736 351 709 Q330 682 278 619 Q226 556 180 512 Q150 484 113 493 Q79 504 74 537 Q74 540 74 544 Q74 573 96 594 Q140 636 194 699 Z" /><glyph glyph-name="uni5230" unicode="&#x5230;" d="M512 672 Q412 681 283 679 Q261 679 241 678 Q235 657 230 630 Q221 590 219 541 Q219 511 226 506 Q237 490 262 489 Q318 489 424 515 Q418 532 416 541 Q404 576 430 604 Q453 630 488 616 Q521 601 532 568 Q538 552 552 501 Q564 453 570 413 Q573 371 544 347 Q511 325 483 342 Q449 362 449 398 Q323 376 240 374 Q179 374 139 409 Q100 444 94 512 Q94 562 104 612 Q110 645 115 670 Q78 666 57 695 Q48 710 46 727 Q46 741 56 756 Q76 785 110 789 Q161 794 289 798 Q330 797 367 799 Q447 798 517 794 Q558 791 576 756 Q591 720 570 695 Q548 670 512 672 ZM171 282 Q197 287 266 293 Q266 302 265 305 Q262 343 292 362 Q322 383 353 361 Q382 342 384 306 L384 300 Q431 303 475 301 Q516 298 536 265 Q554 231 532 204 Q513 179 475 179 Q433 182 387 180 Q387 144 385 111 Q453 116 512 115 Q553 115 574 82 Q592 51 572 21 Q553 -6 517 -7 Q420 -7 299 -18 Q176 -29 140 -38 Q131 -38 125 -40 Q95 -40 79 -17 Q55 10 74 43 Q92 73 126 80 Q164 88 262 100 Q265 135 267 174 Q203 168 181 164 Q142 158 120 187 Q99 216 117 247 Q135 277 171 282 ZM635 404 Q632 505 630 535 Q624 568 652 587 Q679 605 705 586 Q729 568 733 538 Q736 501 739 398 Q739 299 734 221 Q731 184 700 169 Q672 154 647 175 Q625 195 628 227 Q634 302 635 404 ZM808 487 Q802 625 789 719 Q786 751 814 776 Q828 790 846 790 Q858 790 872 781 Q905 765 908 719 Q917 625 927 478 L930 366 Q927 255 920 112 Q908 19 857 -8 Q826 -31 783 -31 Q764 -31 743 -26 Q653 -10 640 44 Q631 77 656 97 Q680 114 717 102 Q735 98 758 93 Q779 90 787 96 Q793 101 801 144 Q816 348 808 487 Z" /><glyph glyph-name="uni524D" unicode="&#x524d;" d="M765 812 Q776 779 761 748 Q758 742 751 731 Q813 730 872 724 Q913 721 932 686 Q938 671 939 657 Q938 641 926 625 Q902 598 867 602 Q683 619 440 614 Q200 610 127 600 Q90 596 68 625 Q61 640 58 656 Q58 671 67 686 Q88 715 122 719 Q166 724 244 728 Q238 739 236 745 Q220 780 241 809 Q262 838 299 829 Q331 820 348 787 Q351 778 365 750 Q368 741 373 731 Q408 731 451 733 Q534 736 611 735 Q623 752 638 773 Q655 803 660 813 Q678 845 715 847 Q750 846 765 812 ZM607 322 Q607 396 604 418 Q601 454 629 475 Q658 495 688 475 Q714 454 719 421 Q722 391 724 317 Q724 244 721 185 Q718 143 683 127 Q650 112 624 134 Q600 157 604 191 Q609 248 607 322 ZM794 322 Q791 409 785 469 Q782 501 810 526 Q836 550 868 531 Q901 515 904 469 Q907 408 913 312 Q916 216 904 73 Q894 -20 842 -47 Q812 -68 774 -67 Q755 -67 730 -62 Q696 -56 672 -41 Q639 -23 632 10 Q623 43 649 63 Q673 80 710 65 Q725 61 746 56 Q764 53 772 57 Q777 62 785 104 Q797 233 794 322 ZM116 -8 Q122 111 112 266 Q103 418 95 466 Q89 501 116 523 Q137 541 163 532 Q163 532 168 533 Q227 550 294 556 Q359 562 422 552 Q460 543 489 514 Q519 486 527 447 Q533 426 537 363 Q540 303 541 205 Q541 109 522 -1 Q510 -63 457 -54 Q402 -48 412 5 Q427 92 430 170 Q433 250 430 312 Q427 374 418 403 Q409 433 382 442 Q346 448 299 441 Q260 437 215 425 Q218 395 222 352 L253 355 Q297 361 331 363 Q369 363 388 333 Q405 303 388 278 Q367 254 336 253 Q303 253 261 247 Q243 246 230 243 L232 173 Q244 175 265 178 Q303 184 332 184 Q370 184 389 153 Q406 125 387 99 Q369 74 336 73 Q306 73 271 68 Q249 67 234 64 L234 -7 Q231 -48 200 -66 Q185 -75 171 -74 Q153 -74 141 -63 Q114 -44 116 -8 Z" /><glyph glyph-name="uni5386" unicode="&#x5386;" d="M362 -2 Q404 145 437 339 Q439 368 444 396 Q383 389 325 375 Q291 368 268 395 Q244 421 259 455 Q274 488 314 498 Q382 510 462 517 L471 593 Q471 631 507 646 Q539 660 565 636 Q592 611 589 576 Q586 555 582 521 Q659 521 707 514 Q790 507 835 463 Q879 420 888 369 Q908 213 856 43 Q835 -22 797 -35 Q760 -50 737 -21 Q715 9 729 43 Q788 195 763 340 Q760 363 742 379 Q705 412 565 406 Q561 363 552 309 Q522 119 481 -28 Q471 -70 433 -80 Q421 -83 414 -83 Q387 -83 374 -63 Q353 -38 362 -2 ZM49 74 Q75 236 88 446 Q97 658 96 722 Q93 760 125 778 Q146 793 169 783 Q175 785 184 785 Q345 803 656 808 Q767 807 863 801 Q905 798 924 764 Q930 749 932 735 Q929 719 919 703 Q895 678 860 679 Q694 694 474 685 Q290 679 214 670 Q214 585 206 429 Q197 221 170 62 Q164 17 127 4 Q93 -11 67 15 Q51 33 48 62 Q51 67 49 74 Z" /><glyph glyph-name="uni53BB" unicode="&#x53bb;" d="M778 125 Q802 64 817 14 Q826 -28 801 -55 Q783 -72 761 -73 Q749 -73 741 -69 Q710 -59 700 -21 Q697 -17 695 -7 Q689 -10 683 -12 Q481 -44 346 -44 Q285 -44 244 -9 Q207 26 199 94 Q202 159 220 222 Q232 284 247 323 Q162 320 123 314 Q86 311 64 340 Q57 355 54 371 Q54 386 63 400 Q84 430 118 434 Q210 440 438 446 Q440 502 441 567 Q257 560 199 550 Q162 544 140 573 Q119 603 138 634 Q155 663 191 669 Q262 678 438 687 Q437 740 435 760 Q429 798 460 818 Q475 827 491 829 Q503 828 520 819 Q549 800 554 765 L558 691 Q690 694 800 688 Q841 685 860 650 Q878 617 856 590 Q834 563 798 565 Q690 574 562 571 Q562 507 560 448 Q730 448 872 435 Q913 432 932 396 Q938 383 939 368 Q936 350 926 336 Q902 309 867 313 Q680 331 438 328 Q404 328 371 326 Q359 295 345 240 Q330 188 324 123 Q324 93 331 88 Q343 72 367 71 Q468 71 656 107 Q640 152 631 166 Q613 201 636 230 Q656 260 692 251 Q728 242 742 210 Q754 186 778 125 Z" /><glyph glyph-name="uni53EF" unicode="&#x53ef;" d="M452 799 L606 802 Q744 801 862 792 Q907 789 925 753 Q931 738 933 724 Q930 706 919 690 Q895 665 858 666 L791 672 Q800 584 814 456 Q825 308 818 86 Q808 -13 752 -43 Q718 -73 663 -71 Q642 -71 618 -67 Q575 -61 545 -46 Q511 -31 499 7 Q487 42 515 63 Q541 84 579 70 Q606 64 637 62 Q666 59 677 67 Q686 73 691 118 Q697 327 688 466 Q676 591 663 678 Q558 680 442 677 Q208 671 137 660 Q98 654 76 686 Q64 701 64 719 Q64 734 74 748 Q95 780 131 783 Q221 792 452 799 ZM540 525 Q575 450 579 335 Q579 233 527 175 Q478 118 365 119 Q254 112 206 140 Q157 167 133 207 Q106 246 104 297 Q104 344 129 396 Q153 447 136 487 Q109 546 166 573 Q210 594 236 563 Q298 590 390 591 Q501 600 540 525 ZM254 418 Q230 357 230 321 Q236 269 269 250 Q301 232 359 240 Q410 242 429 267 Q449 290 446 348 Q446 407 435 441 Q420 476 370 473 Q321 470 288 446 Q270 436 258 430 Q255 424 254 418 Z" /><glyph glyph-name="uni53F2" unicode="&#x53f2;" d="M473 148 Q652 115 791 71 Q832 59 844 20 Q853 -19 824 -40 Q796 -61 760 -51 Q625 -6 445 28 Q439 3 433 -26 Q421 -71 383 -81 Q371 -84 363 -84 Q338 -84 322 -64 Q300 -39 310 -1 Q315 26 323 52 Q233 67 195 70 Q158 73 142 108 Q127 144 153 170 Q180 196 216 191 Q260 187 351 171 Q359 215 368 261 Q286 264 229 269 Q175 277 142 310 Q109 340 106 393 L104 440 Q104 490 115 541 Q133 619 133 683 Q139 730 189 731 Q240 733 262 699 Q324 704 432 710 L435 710 L441 785 Q441 826 478 842 Q489 847 503 848 Q521 847 539 832 Q566 805 563 771 Q562 747 558 714 Q695 714 768 700 Q818 684 843 659 Q866 637 878 594 Q890 539 893 483 Q890 408 864 333 Q839 296 803 280 Q767 267 728 265 Q695 262 609 259 Q557 259 493 258 L473 148 ZM543 591 Q534 515 520 418 Q517 393 512 369 Q547 369 585 371 Q671 374 718 378 Q750 381 756 404 Q771 485 758 556 Q752 579 721 582 Q694 585 602 589 Q572 589 543 591 ZM236 560 Q214 476 239 397 Q245 387 268 377 Q324 371 388 369 Q394 410 400 450 Q409 530 420 591 Q344 591 272 586 Q244 585 236 560 Z" /><glyph glyph-name="uni540D" unicode="&#x540d;" d="M641 598 Q515 598 338 582 L327 582 Q266 486 210 412 Q180 378 143 383 Q101 388 94 422 Q91 433 92 440 Q92 466 107 485 Q169 562 237 669 Q305 776 322 811 Q340 844 377 847 Q415 846 430 813 Q442 779 427 747 Q418 734 407 714 Q554 726 683 726 Q770 726 813 692 Q851 661 853 614 Q853 569 818 529 Q749 460 637 367 Q675 370 712 369 Q801 371 850 314 Q897 259 899 166 Q896 60 843 -9 Q785 -77 619 -75 Q588 -78 560 -78 Q484 -78 447 -55 Q398 -22 385 32 Q373 85 374 150 L374 167 Q322 130 262 88 Q226 70 191 82 Q157 94 158 135 Q161 174 197 195 Q298 266 390 334 Q342 376 317 394 Q286 414 292 452 Q295 488 332 496 Q367 505 396 483 Q404 477 435 454 Q461 433 482 413 Q482 412 486 408 Q587 488 677 566 Q689 583 687 591 Q681 597 641 598 ZM611 47 Q709 44 736 79 Q763 115 765 165 Q765 201 751 227 Q733 250 700 252 Q639 252 524 219 Q502 213 483 216 L483 213 Q479 152 480 118 Q483 87 509 65 Q532 46 611 47 Z" /><glyph glyph-name="uni559C" unicode="&#x559c;" d="M550 804 Q717 806 856 793 Q889 792 901 765 Q913 740 897 720 Q881 701 854 702 Q722 716 560 716 L560 680 Q683 680 787 669 Q820 666 831 640 Q843 615 827 595 Q809 576 783 577 Q641 592 453 590 Q266 589 210 581 Q180 578 166 600 Q151 623 166 645 Q181 666 207 670 Q272 676 438 679 Q438 694 438 714 Q210 708 141 698 Q111 695 97 717 Q79 738 96 762 Q110 783 136 787 Q220 796 438 802 Q441 822 464 836 Q479 844 493 845 Q508 844 524 834 Q542 822 550 804 ZM598 -78 Q553 -78 505 -80 Q469 -80 431 -79 Q337 -79 273 -72 Q233 -66 205 -40 Q180 -16 177 24 Q177 53 185 82 Q193 112 196 136 Q202 171 241 173 Q280 173 297 146 Q350 149 442 156 Q633 170 729 151 Q770 141 789 121 Q807 103 817 69 Q826 24 807 -21 Q786 -51 758 -62 Q728 -73 698 -73 L598 -78 ZM433 3 Q501 3 576 7 Q650 10 691 13 Q718 16 720 38 Q717 56 693 62 Q671 64 590 66 Q511 68 440 66 Q374 65 306 60 Q282 56 280 36 Q280 32 285 29 Q288 17 303 10 Q362 4 433 3 ZM880 177 Q690 194 440 188 Q397 188 358 187 L344 187 Q176 181 118 173 Q90 169 72 192 Q63 204 64 217 Q64 228 71 239 Q86 263 114 266 Q170 272 288 276 Q288 281 287 285 Q284 303 282 309 Q279 317 279 326 L273 326 Q233 332 205 358 Q180 382 177 423 Q177 450 185 480 Q193 510 196 534 Q202 570 241 571 Q280 571 297 545 Q350 548 442 555 Q633 567 729 550 Q770 538 789 520 Q807 502 817 468 Q826 423 807 377 Q786 347 758 337 Q740 331 721 327 L721 325 Q721 318 720 297 Q720 290 719 281 Q803 278 883 271 Q915 271 930 242 Q933 230 936 220 Q933 207 926 195 Q908 176 880 177 ZM433 401 Q501 401 576 405 Q650 408 691 411 Q718 416 720 437 Q717 454 693 460 Q671 463 590 465 Q511 467 440 465 Q374 464 306 458 Q282 454 280 435 Q280 431 285 428 Q288 418 303 408 Q362 402 433 401 ZM451 281 Q525 284 596 283 Q596 286 598 288 Q601 302 602 320 L598 320 Q525 317 431 319 Q416 319 401 320 Q401 313 407 296 Q407 290 410 281 L451 281 Z" /><glyph glyph-name="uni5EFA" unicode="&#x5efa;" d="M605 568 Q464 564 422 558 Q392 555 378 576 Q360 599 377 621 Q392 644 417 647 Q470 652 599 656 Q596 679 596 695 Q535 694 464 689 Q409 683 405 735 Q402 789 460 789 Q528 795 587 799 Q590 820 610 832 Q622 841 639 843 Q677 839 695 802 Q769 802 821 792 Q860 782 875 765 Q887 749 898 720 Q901 687 907 652 Q940 651 952 624 Q955 614 957 604 Q954 591 948 579 Q932 561 906 562 Q906 543 903 522 Q893 477 866 458 Q841 439 801 434 Q762 433 722 430 Q722 409 724 389 Q792 389 850 385 Q879 384 893 358 Q904 336 889 314 Q874 298 848 298 Q793 303 725 302 Q725 281 724 259 Q805 258 880 249 Q912 246 926 219 Q938 192 921 172 Q903 151 875 154 Q805 163 723 165 Q723 153 722 140 Q719 100 687 82 Q654 66 630 87 Q606 108 607 141 Q607 152 608 166 Q491 166 453 160 Q425 157 407 181 Q392 204 407 228 Q422 251 450 253 Q497 256 611 259 Q611 279 612 300 Q522 297 491 290 Q466 287 448 308 Q433 328 447 351 Q462 372 486 376 Q522 381 611 385 Q611 405 610 425 Q540 424 463 423 Q411 426 412 477 Q412 527 469 524 Q540 524 607 525 L605 568 ZM710 659 L806 659 Q806 673 803 685 Q800 696 787 695 Q753 698 707 697 Q707 682 710 659 ZM808 568 Q763 570 715 570 Q715 552 718 529 Q753 531 789 533 Q804 533 806 547 Q806 558 808 568 ZM299 312 Q331 264 339 205 Q336 169 328 136 Q352 133 380 126 Q562 92 703 48 Q742 36 752 -1 Q761 -36 733 -58 Q708 -78 674 -67 Q533 -24 348 15 L279 28 Q251 -19 240 -40 Q218 -81 174 -83 Q171 -83 167 -83 Q133 -83 124 -52 Q118 -16 133 12 Q139 26 154 50 Q123 55 104 56 Q65 59 53 92 Q47 104 48 114 Q48 134 64 148 Q88 172 123 169 Q156 166 211 156 Q220 186 224 213 Q218 260 182 301 Q146 339 143 372 Q143 401 171 466 Q200 532 205 547 Q211 561 209 568 Q209 573 176 570 Q158 569 125 561 Q88 552 59 568 Q41 579 40 600 Q40 608 45 621 Q57 657 95 669 Q139 684 170 690 Q197 695 222 694 Q284 693 314 665 Q344 638 345 605 Q345 575 327 538 Q309 501 287 456 Q263 414 264 386 Q267 359 299 312 Z" /><glyph glyph-name="uni5F0F" unicode="&#x5f0f;" d="M324 400 Q422 400 495 393 Q536 389 554 353 Q568 317 546 292 Q522 267 486 271 Q449 276 403 278 L407 201 Q407 156 404 115 Q463 123 517 125 Q558 127 581 95 Q602 62 582 34 Q561 6 527 4 Q434 1 316 -19 Q196 -36 162 -47 Q125 -56 101 -29 Q77 -4 93 30 Q108 63 143 70 Q181 79 281 98 Q287 145 287 207 Q287 258 284 280 Q214 280 191 277 Q154 274 133 305 Q112 335 135 365 Q155 395 190 396 Q229 399 324 400 ZM744 719 Q732 733 730 736 Q706 763 721 796 Q735 823 766 825 Q766 824 769 825 Q801 824 822 799 Q825 793 840 778 Q852 765 861 750 Q879 716 859 684 Q843 654 809 658 Q776 664 762 693 Q756 705 744 719 ZM130 633 Q220 641 452 646 Q491 648 530 647 Q511 698 496 724 Q478 757 499 788 Q520 818 556 810 Q588 801 605 770 Q626 727 659 646 Q767 645 864 634 Q906 631 924 596 Q930 581 931 567 Q928 551 918 535 Q894 510 859 512 Q790 520 710 523 Q725 486 741 443 Q836 206 887 15 Q896 -27 871 -55 Q853 -72 832 -73 Q820 -73 813 -69 Q780 -59 771 -22 Q720 170 626 413 Q599 478 580 527 Q513 527 441 526 Q207 523 135 514 Q96 510 76 539 Q67 554 65 570 Q65 585 75 600 Q96 629 130 633 Z" /><glyph glyph-name="uni5F53" unicode="&#x5f53;" d="M190 647 Q174 679 165 688 Q141 718 159 751 Q177 783 212 779 Q247 776 268 747 Q276 735 298 702 Q319 671 332 642 Q347 603 326 571 Q304 541 270 548 Q237 557 223 589 Q211 615 190 647 ZM741 713 Q765 742 771 752 Q791 782 829 778 Q865 774 874 738 Q883 704 862 676 Q853 663 829 631 Q807 600 783 577 Q752 549 715 559 Q676 568 674 604 Q671 637 696 662 Q717 683 741 713 ZM904 387 Q910 333 912 276 Q909 146 869 9 Q850 -56 813 -68 Q801 -71 791 -72 Q773 -72 759 -59 L754 -59 Q616 -44 436 -47 Q253 -50 201 -57 Q164 -63 143 -31 Q122 -3 142 29 Q162 59 196 63 Q267 68 443 72 Q620 75 759 63 L765 63 Q779 116 787 165 L780 165 Q635 182 444 181 Q254 181 196 173 Q159 170 138 199 Q117 231 138 260 Q158 289 193 292 Q267 298 454 300 Q642 302 787 286 L791 286 Q788 324 783 358 Q777 408 705 418 Q618 432 454 418 Q294 405 153 373 Q119 366 96 393 Q81 408 81 428 Q81 442 87 453 Q102 486 143 496 Q277 525 443 532 Q446 588 443 655 Q437 735 436 758 Q430 796 459 817 Q474 826 491 828 Q506 827 520 819 Q549 801 554 766 Q557 735 563 654 Q566 590 565 536 Q666 536 727 529 Q808 522 853 479 Q894 436 904 387 Z" /><glyph glyph-name="uni5F55" unicode="&#x5f55;" d="M224 226 Q191 234 180 237 Q141 246 134 281 Q125 317 153 339 Q183 360 217 351 Q229 348 267 338 Q302 329 329 317 Q368 301 372 261 Q375 222 346 206 Q316 190 282 205 Q260 216 224 226 ZM252 126 Q305 153 321 163 Q354 184 385 165 Q417 147 411 110 Q405 76 375 58 Q354 46 300 16 Q248 -14 201 -30 Q161 -45 131 -21 Q101 3 110 37 Q119 70 154 82 Q199 99 252 126 ZM721 330 Q756 348 767 355 Q799 376 831 356 Q861 338 856 302 Q852 266 820 249 Q807 240 769 220 Q730 201 700 188 Q660 175 630 198 Q600 222 611 256 Q620 288 655 301 Q685 312 721 330 ZM115 485 Q210 494 449 505 Q575 511 689 509 L695 548 Q584 554 440 548 Q289 542 244 534 Q213 530 192 556 Q173 582 190 608 Q208 635 237 639 Q296 645 445 652 Q580 660 690 653 Q680 676 656 683 Q578 709 465 704 Q354 698 217 681 Q162 666 150 719 Q140 772 191 787 Q311 814 445 818 Q460 817 475 818 Q589 817 698 797 Q737 788 768 758 Q797 728 808 688 Q811 679 812 650 L812 580 Q812 546 804 505 Q839 504 877 500 Q915 497 934 465 Q940 452 940 439 Q939 423 929 408 Q908 386 874 386 Q733 398 560 396 L560 393 Q563 342 566 213 L566 176 L568 176 L685 139 Q766 112 830 83 Q869 65 872 26 Q875 -12 845 -28 Q815 -46 782 -29 Q721 -1 640 28 Q589 45 563 54 Q563 15 559 -18 Q556 -62 520 -76 Q505 -82 492 -83 Q473 -83 459 -69 Q432 -47 438 -11 Q446 90 447 220 Q447 351 441 390 L440 394 Q194 385 122 374 Q88 368 65 396 Q58 411 56 426 Q56 440 64 453 Q82 482 115 485 Z" /><glyph glyph-name="uni5F97" unicode="&#x5f97;" d="M411 210 Q467 215 613 219 Q658 221 700 221 Q697 241 696 259 Q656 259 609 258 Q483 255 444 250 Q413 247 395 271 Q377 298 395 322 Q409 348 440 351 Q491 356 615 359 Q738 362 838 355 Q873 352 889 322 Q901 294 884 271 Q863 250 834 252 Q822 254 812 255 Q812 240 815 218 Q842 218 871 214 Q910 211 925 179 Q928 166 932 153 Q929 138 920 124 Q899 100 867 104 Q845 106 820 107 L820 56 Q810 -33 760 -62 Q739 -76 717 -79 Q708 -79 701 -80 Q683 -80 663 -76 Q584 -61 571 -11 Q562 22 587 40 Q611 58 646 45 L673 38 Q685 37 691 39 Q697 44 705 85 L705 112 Q497 112 416 102 Q382 98 362 125 Q346 152 362 180 Q380 206 411 210 ZM421 -32 Q409 -26 406 -25 Q378 -15 375 20 Q375 50 402 63 Q429 74 456 62 Q462 61 476 53 Q487 47 500 41 Q527 17 525 -14 Q522 -46 493 -54 Q465 -63 441 -43 Q434 -40 421 -32 ZM907 650 Q901 517 827 449 Q751 383 647 387 Q530 383 469 429 Q408 476 404 580 Q401 684 434 777 Q445 806 478 812 Q510 817 525 789 Q540 764 530 730 Q511 673 510 607 Q510 541 542 517 Q572 493 647 494 Q706 494 750 531 Q794 570 799 658 Q784 751 706 737 Q678 737 667 726 Q658 716 657 704 Q657 683 705 684 Q743 692 769 666 Q792 642 775 610 Q759 579 727 574 Q645 562 597 588 Q546 614 540 669 Q531 722 572 777 Q611 831 681 843 Q693 842 707 844 Q778 843 831 805 Q893 756 907 650 ZM182 719 Q217 731 227 735 Q262 750 290 728 Q317 704 308 669 Q296 636 264 622 Q249 616 213 603 Q176 590 146 582 Q106 575 78 604 Q53 631 68 663 Q83 695 118 700 Q145 706 182 719 ZM101 464 Q142 476 197 500 Q250 523 266 531 Q298 549 329 528 Q359 509 352 473 Q343 437 313 422 Q295 413 254 395 Q257 356 266 263 Q272 163 269 83 Q266 41 231 22 Q197 6 171 26 Q144 49 146 84 Q149 162 146 264 Q143 317 140 349 Q98 337 69 363 Q53 383 51 403 Q51 412 54 422 Q66 454 101 464 Z" /><glyph glyph-name="uni603B" unicode="&#x603b;" d="M381 251 Q407 229 402 193 Q399 178 396 148 Q393 123 394 89 Q397 59 403 55 Q415 43 441 43 Q530 43 705 78 Q743 90 772 66 Q799 44 786 3 Q771 -38 705 -53 Q533 -79 418 -80 Q357 -80 317 -44 Q280 -10 272 61 Q271 96 274 133 Q283 243 322 260 Q352 274 381 251 ZM814 106 Q793 129 786 135 Q761 161 770 196 Q781 232 817 234 Q853 236 877 212 Q886 203 908 180 Q929 156 946 137 Q958 116 960 96 Q957 81 952 65 Q934 32 901 33 Q867 35 848 64 Q833 84 814 106 ZM87 135 Q99 164 103 173 Q114 208 151 214 Q187 217 205 187 Q223 156 210 123 Q207 111 193 79 Q183 49 168 25 Q144 -10 106 -10 Q69 -10 56 22 Q53 36 51 48 Q51 68 63 85 Q74 106 87 135 ZM575 128 Q541 161 518 174 Q485 195 491 233 Q494 269 531 278 Q567 286 595 266 Q604 260 625 244 Q693 196 680 146 Q668 109 634 104 Q598 103 575 128 ZM523 299 Q354 302 282 310 Q134 324 135 440 Q135 482 157 528 Q178 575 177 608 Q174 676 240 679 Q267 679 286 667 Q304 670 322 672 L310 697 Q292 733 287 742 Q266 775 288 806 Q306 832 331 832 Q337 832 344 830 Q379 823 396 792 Q401 779 422 742 Q437 714 447 686 Q500 689 555 689 Q569 712 584 741 Q605 783 609 796 Q624 831 660 836 Q663 835 666 836 Q699 835 714 808 Q729 775 717 743 Q711 725 689 682 Q688 679 686 674 Q727 667 768 654 Q864 629 857 480 Q860 362 758 333 Q653 305 523 299 ZM332 426 Q394 417 518 420 Q590 420 650 433 Q707 444 708 494 Q708 553 656 563 Q628 571 586 571 Q583 571 581 572 Q575 572 573 573 L535 573 Q433 573 335 552 Q314 549 297 548 Q294 539 289 531 Q268 497 270 467 Q270 436 332 426 Z" /><glyph glyph-name="uni606D" unicode="&#x606d;" d="M618 388 Q534 388 439 384 Q378 383 326 380 Q323 374 320 369 Q307 348 262 291 Q217 236 181 196 Q151 169 114 177 Q80 186 73 220 Q70 252 94 277 Q132 315 177 370 Q141 367 119 364 Q82 358 62 388 Q53 402 51 418 Q51 433 60 446 Q77 476 112 480 Q163 485 265 491 Q265 539 262 596 Q214 595 192 590 Q155 586 135 614 Q114 644 135 673 Q152 702 188 705 Q211 708 253 709 Q250 742 247 758 Q241 794 269 816 Q295 837 327 819 Q357 803 362 769 Q362 751 368 715 L459 718 Q542 721 619 719 L621 778 Q618 816 650 833 Q662 839 676 841 Q694 840 708 828 Q735 807 736 773 Q736 754 734 715 Q770 714 807 710 Q848 707 864 673 Q879 640 858 614 Q839 590 802 592 L729 598 Q726 546 719 502 Q800 502 880 494 Q921 491 939 458 Q944 445 945 431 Q942 415 934 399 Q910 375 877 376 L796 382 L803 375 Q865 317 910 266 Q937 235 925 199 Q913 165 879 161 Q846 160 823 186 Q783 236 719 295 Q658 354 636 369 Q624 378 618 388 ZM612 603 Q537 605 450 603 Q413 603 378 602 Q381 545 382 497 Q411 497 449 499 Q526 502 600 503 Q606 547 612 603 ZM163 87 Q207 146 226 188 Q240 223 277 223 Q313 223 326 191 Q338 160 324 130 Q305 84 260 19 Q233 -14 197 -10 Q160 -7 151 27 Q144 60 163 87 ZM741 55 Q722 103 704 126 Q683 156 703 188 Q721 217 757 212 Q789 206 808 177 Q814 168 828 143 Q840 119 851 98 Q862 59 840 30 Q816 2 784 12 Q753 23 741 55 ZM548 109 Q536 154 532 167 Q520 202 544 228 Q568 254 602 240 Q634 228 644 195 Q649 179 663 132 Q675 87 682 49 Q685 7 656 -16 Q628 -39 598 -21 Q568 -8 564 29 Q560 65 548 109 ZM371 157 Q371 249 368 276 Q365 315 396 336 Q429 357 459 335 Q489 313 491 277 Q494 243 494 149 Q494 59 487 -14 Q481 -58 445 -74 Q432 -80 419 -80 Q398 -80 384 -65 Q357 -43 362 -5 Q371 66 371 157 Z" /><glyph glyph-name="uni620F" unicode="&#x620f;" d="M456 533 Q456 437 376 305 Q367 292 357 276 Q416 212 462 152 Q489 118 474 80 Q459 44 423 42 Q387 42 365 71 Q331 121 284 172 Q241 115 190 59 Q162 28 125 26 Q91 26 76 68 Q64 112 87 139 Q140 198 193 271 Q103 366 72 393 Q50 411 49 439 Q52 447 51 455 Q60 493 97 497 Q132 502 160 479 Q193 449 261 378 Q329 492 328 519 Q328 545 312 559 Q288 580 229 581 Q181 581 128 555 Q92 546 71 568 Q49 591 61 624 Q72 659 106 670 Q166 699 232 700 Q330 700 393 661 Q455 624 456 533 ZM838 218 Q862 112 881 17 Q887 -28 859 -54 Q840 -68 821 -70 Q808 -70 797 -64 Q764 -51 759 -13 Q744 67 726 153 Q668 122 616 97 Q576 79 543 103 Q512 124 519 160 Q524 196 561 210 Q623 237 694 277 Q675 351 653 427 Q647 444 643 459 Q576 447 552 439 Q513 432 487 457 Q462 486 479 519 Q493 552 529 561 Q553 566 607 578 Q570 695 552 742 Q537 778 561 808 Q575 826 601 828 Q609 827 620 825 Q656 813 669 779 Q690 721 729 599 Q804 610 870 614 Q914 617 937 584 Q945 566 948 550 Q945 535 939 522 Q920 492 883 489 Q828 488 765 480 Q768 465 774 447 Q789 395 805 342 Q837 362 852 371 Q884 395 917 377 Q947 361 947 323 Q944 287 914 266 Q890 250 838 218 ZM806 688 L771 707 Q738 724 737 760 Q737 795 770 808 Q802 819 832 805 Q844 801 872 783 Q899 768 921 753 Q948 731 948 700 Q945 696 947 689 Q941 653 909 645 Q878 638 851 658 Q833 673 806 688 Z" /><glyph glyph-name="uni6211" unicode="&#x6211;" d="M788 651 Q764 692 747 708 Q723 738 737 772 Q752 805 789 804 Q825 804 846 775 Q852 769 868 748 L895 711 Q912 674 894 640 Q873 607 839 613 Q803 619 788 651 ZM535 134 Q600 163 680 211 Q656 307 626 411 Q620 426 617 441 Q533 441 438 436 Q392 436 351 432 Q354 384 358 327 Q388 333 403 338 Q439 350 466 324 Q492 299 478 265 Q463 232 430 222 Q406 216 361 205 Q361 154 363 95 Q357 46 342 15 Q324 -15 299 -29 Q256 -62 188 -44 Q100 -26 87 29 Q78 65 105 83 Q132 103 168 87 Q183 81 201 77 Q219 74 226 78 Q234 83 240 127 Q240 154 239 178 Q193 169 153 164 Q110 161 88 190 Q64 222 83 251 Q101 281 136 284 Q180 289 236 300 Q236 368 230 425 Q155 419 117 413 Q80 407 58 438 Q49 453 47 469 Q47 484 56 497 Q73 527 109 532 Q148 538 217 542 Q208 604 200 654 Q178 651 157 647 Q114 646 92 675 Q68 705 87 735 Q105 765 141 769 Q194 774 266 789 Q337 804 357 812 Q366 814 379 815 Q400 814 420 797 Q444 770 431 737 Q416 706 383 695 Q362 689 318 680 Q327 625 337 550 Q387 553 446 555 Q514 560 581 561 Q544 678 525 725 Q512 760 535 788 Q556 815 593 805 Q625 793 640 761 Q660 697 705 561 Q797 561 878 555 Q919 552 939 518 Q944 503 946 488 Q943 473 935 457 Q911 430 877 433 Q813 439 741 439 Q741 438 744 431 Q768 352 787 276 Q820 299 837 310 Q866 333 900 317 Q933 302 932 265 Q929 229 900 209 Q875 191 816 154 Q834 79 848 3 Q854 -38 826 -64 Q808 -79 789 -80 Q777 -80 767 -75 Q734 -60 730 -24 Q721 32 708 89 Q647 52 592 25 Q550 9 521 29 Q488 50 495 85 Q501 117 535 134 Z" /><glyph glyph-name="uni6392" unicode="&#x6392;" d="M334 143 Q310 172 327 203 Q345 235 379 241 Q391 244 428 251 Q451 256 474 259 Q477 318 479 379 Q467 379 455 377 Q431 376 425 373 Q386 369 365 398 Q346 428 364 458 Q385 488 419 492 Q428 494 454 497 Q466 500 480 501 L480 603 Q467 605 449 605 Q421 605 411 606 Q374 606 356 640 Q340 672 363 699 Q387 726 422 725 L478 725 Q478 736 477 746 Q471 785 503 804 Q532 824 563 803 Q593 782 595 747 Q601 657 599 425 Q596 194 575 13 Q569 -29 535 -46 Q501 -61 475 -38 Q448 -14 453 21 L465 136 Q450 135 438 131 Q405 127 395 123 Q356 114 334 143 ZM933 103 Q906 81 872 88 Q848 91 818 94 Q815 94 812 95 Q809 46 805 -5 Q802 -49 766 -64 Q751 -70 738 -71 Q722 -71 705 -59 Q680 -35 683 0 Q700 191 698 438 Q692 686 685 760 Q679 798 710 818 Q725 827 741 829 Q753 828 770 819 Q799 800 804 765 Q804 747 806 721 Q815 721 831 723 Q864 726 893 725 Q934 721 951 685 Q957 670 958 657 Q955 641 944 624 Q922 599 886 603 L812 603 Q812 546 814 473 L822 473 Q849 475 873 475 Q914 471 932 435 Q946 399 925 374 Q901 349 866 353 Q847 353 820 352 L817 352 Q817 282 815 214 Q821 214 834 213 Q867 213 892 208 Q933 199 946 162 Q949 150 950 141 Q950 119 933 103 ZM282 268 Q282 211 281 146 Q275 95 260 65 Q242 37 217 21 Q202 5 182 0 Q161 -6 134 -3 Q61 0 37 52 Q34 64 32 74 Q32 94 47 107 Q71 131 108 121 Q117 121 130 123 Q139 125 144 129 Q152 134 158 178 Q158 216 159 252 Q125 246 111 241 Q74 232 50 260 Q35 277 35 294 Q35 308 42 319 Q57 352 92 359 Q110 364 158 373 Q155 432 152 480 Q149 510 146 537 Q113 536 104 532 Q65 529 44 559 Q32 573 34 589 Q34 604 44 619 Q65 649 100 652 Q108 654 131 655 Q128 670 127 684 Q124 717 152 743 Q179 767 213 748 Q245 729 250 684 Q250 674 253 659 Q262 659 274 657 Q316 654 334 618 Q349 585 328 558 Q306 533 268 535 Q271 507 274 471 Q277 432 279 386 Q306 382 323 356 Q344 325 324 295 Q308 273 282 268 Z" /><glyph glyph-name="uni6570" unicode="&#x6570;" d="M77 704 Q68 718 63 722 Q50 740 50 759 Q50 773 58 786 Q72 819 110 815 Q146 814 166 783 Q169 777 183 762 Q194 747 202 732 Q220 693 197 661 Q175 631 142 638 Q106 646 93 678 Q87 690 77 704 ZM414 750 Q438 773 452 791 Q476 821 513 812 Q548 803 554 767 Q557 731 535 705 Q529 699 518 683 Q503 668 492 656 Q458 632 422 645 Q386 659 387 693 Q387 729 414 750 ZM545 501 Q566 564 583 649 Q598 735 603 760 Q606 798 641 812 Q673 824 699 798 Q723 771 720 737 Q714 710 702 642 L753 642 Q827 642 886 635 Q927 631 944 595 Q947 582 950 568 Q947 550 936 534 Q912 510 877 514 Q819 520 745 522 L677 522 Q668 494 662 469 Q647 427 611 419 Q574 410 554 438 Q533 467 545 501 ZM810 221 Q863 179 908 142 Q941 112 934 75 Q925 38 893 30 Q857 24 832 47 Q801 74 763 105 Q730 32 699 -31 Q680 -70 641 -72 Q602 -75 587 -43 Q572 -13 589 20 Q624 89 664 178 Q597 223 575 236 Q544 254 544 292 Q544 327 579 340 Q612 352 644 334 Q664 322 709 290 Q744 385 755 417 Q764 453 802 462 Q837 468 857 438 Q875 410 867 375 Q852 330 810 221 ZM355 781 Q357 735 365 623 Q418 623 464 618 Q502 615 520 582 Q534 551 515 525 Q494 503 459 504 Q419 509 369 510 L369 498 Q419 482 504 417 Q528 401 524 366 Q521 333 491 327 Q463 323 431 344 Q392 370 367 385 Q367 364 366 344 Q363 301 329 283 Q323 283 322 281 Q355 281 374 276 Q415 270 445 241 Q475 213 490 150 L490 98 Q520 103 543 83 Q570 61 555 23 Q540 -15 480 -29 Q476 -56 458 -70 Q443 -79 426 -81 Q414 -81 401 -75 Q385 -66 376 -46 Q309 -55 260 -56 Q202 -56 165 -22 Q131 10 123 76 Q117 118 118 158 Q84 158 68 179 Q52 202 63 233 Q75 263 121 270 Q121 270 126 271 Q135 306 160 316 Q190 328 214 308 Q229 296 233 278 Q257 281 280 281 Q274 284 269 289 Q242 312 244 347 L247 401 Q238 398 230 393 Q191 374 147 341 Q125 325 100 334 Q73 343 73 375 Q73 407 104 430 Q175 480 227 499 Q235 504 249 508 L249 510 Q144 507 112 502 Q78 498 58 525 Q49 540 48 555 Q48 569 57 582 Q74 611 108 613 Q147 618 245 622 Q242 736 235 774 Q229 813 260 834 Q275 843 291 845 Q306 844 320 835 Q350 816 355 781 ZM281 60 Q317 60 374 71 Q374 103 375 114 Q372 141 371 145 Q359 159 349 161 Q325 166 230 163 Q230 136 236 103 Q239 76 246 71 Q258 59 281 60 Z" /><glyph glyph-name="uni65F6" unicode="&#x65f6;" d="M91 105 Q45 164 49 358 Q58 543 41 607 Q35 622 36 636 Q36 672 78 689 Q114 704 137 684 Q184 707 237 707 Q317 707 354 663 Q389 620 393 397 Q393 147 352 98 Q310 47 230 49 Q136 49 91 105 ZM255 310 Q231 318 197 325 Q181 328 169 331 Q163 217 176 193 Q191 169 224 166 Q250 166 267 187 Q275 201 278 306 Q268 306 255 310 ZM183 449 Q215 445 279 429 Q279 569 269 582 Q257 597 227 599 Q203 599 170 578 Q173 532 173 451 Q176 451 183 449 ZM469 669 Q522 675 655 683 Q670 685 689 685 Q688 724 682 758 Q679 791 707 817 Q722 829 740 831 Q752 830 768 822 Q800 804 805 758 L812 687 Q853 687 894 684 Q935 681 954 647 Q960 632 962 617 Q959 601 950 586 Q928 559 892 562 Q856 564 821 565 Q821 528 826 485 Q835 319 820 71 Q814 22 799 -9 Q781 -38 756 -53 Q723 -76 688 -80 Q679 -80 673 -81 Q640 -81 604 -72 Q553 -60 522 -43 Q491 -25 481 11 Q474 46 500 64 Q527 82 563 67 Q595 60 633 51 Q671 45 683 55 Q692 60 697 104 Q712 338 704 495 Q701 533 699 564 Q677 564 652 563 Q519 557 477 550 Q438 544 417 573 Q396 603 415 634 Q433 663 469 669 ZM531 223 Q482 286 445 317 Q417 344 427 379 Q436 414 473 418 Q508 421 533 397 Q545 388 576 355 Q606 325 627 298 Q651 262 637 227 Q622 191 586 192 Q552 192 531 223 Z" /><glyph glyph-name="uni6635" unicode="&#x6635;" d="M93 108 Q48 165 53 358 Q62 541 45 604 Q42 618 40 630 Q40 665 80 681 Q110 693 131 678 Q181 704 237 703 Q314 703 352 659 Q387 616 389 396 Q389 149 351 100 Q309 51 230 51 Q136 51 93 108 ZM219 438 Q248 438 271 439 Q274 439 282 438 Q279 566 269 579 Q257 594 227 595 Q203 595 166 573 Q169 521 168 432 Q171 432 178 433 L219 438 ZM281 318 Q250 318 216 316 Q189 316 181 313 Q172 313 166 314 Q163 217 176 194 Q191 170 224 168 Q250 168 267 188 Q275 202 281 318 ZM878 -53 Q784 -68 722 -69 Q661 -69 620 -34 Q580 1 574 70 Q571 124 577 181 Q583 237 590 272 Q599 328 631 341 Q663 356 690 332 Q717 308 713 272 Q710 263 708 246 Q735 249 769 256 Q822 268 838 272 Q873 284 900 258 Q924 231 911 198 Q896 167 862 156 Q843 150 786 138 Q737 128 698 122 Q698 112 699 100 Q702 70 707 64 Q719 51 744 50 Q788 50 878 74 Q916 86 943 63 Q958 48 961 25 Q958 15 956 1 Q941 -37 878 -53 ZM400 39 Q430 215 442 445 Q454 675 451 745 Q448 784 480 802 Q507 819 533 803 Q542 808 559 810 Q612 816 681 819 Q749 818 814 804 Q859 791 891 764 Q920 737 939 686 Q947 641 946 580 Q943 520 931 487 Q913 451 884 425 Q832 382 689 381 Q635 381 559 393 Q547 188 522 26 Q516 -18 479 -31 Q443 -46 419 -21 Q395 3 400 39 ZM569 681 Q566 620 563 522 Q605 513 665 507 Q733 501 769 509 Q847 529 821 634 Q812 669 779 681 Q736 695 675 691 Q614 688 569 681 Z" /><glyph glyph-name="uni6682" unicode="&#x6682;" d="M512 378 Q521 464 522 575 Q522 686 520 721 Q517 756 545 775 Q566 790 591 780 Q600 782 611 782 Q673 782 756 794 Q836 806 860 812 Q896 818 918 793 Q939 766 924 737 Q909 709 877 701 Q846 695 764 682 Q691 673 633 669 Q633 648 634 622 Q666 625 743 626 Q826 628 891 622 Q929 619 946 586 Q949 573 952 562 Q949 544 939 529 Q920 507 885 508 Q861 511 838 512 Q838 488 843 443 Q846 380 844 330 Q841 290 808 273 Q775 258 751 278 Q727 299 730 333 Q732 381 730 445 Q727 493 725 514 Q658 514 634 510 Q631 435 626 370 Q620 331 588 315 Q555 302 531 323 Q509 344 512 378 ZM486 277 Q686 280 758 244 Q829 210 831 119 Q840 26 772 -20 Q706 -64 547 -79 Q526 -79 507 -79 Q369 -79 305 -60 Q232 -36 203 15 Q175 66 170 162 Q170 227 225 228 Q281 230 281 164 Q281 101 297 69 Q312 38 357 23 Q402 10 503 13 Q626 25 682 52 Q735 78 731 113 Q731 148 693 166 Q656 184 517 188 Q462 184 444 176 Q428 170 428 160 Q428 148 466 150 Q501 153 536 153 Q607 159 612 109 Q615 82 597 70 Q576 60 538 55 Q430 46 378 59 Q329 73 314 132 Q313 185 352 229 Q390 273 486 277 ZM394 661 Q324 672 233 673 Q202 634 191 599 Q181 556 219 560 Q239 560 264 562 Q261 574 261 583 Q255 616 280 636 Q307 653 333 638 Q360 622 364 592 Q364 589 365 584 Q377 587 389 591 Q436 617 464 565 Q490 513 428 487 Q401 478 376 471 L376 466 Q376 451 378 434 Q396 434 412 433 Q451 433 466 402 Q481 374 464 349 Q446 325 414 326 Q396 326 381 327 L381 306 Q378 269 350 252 Q320 237 297 255 Q273 275 274 306 L274 323 Q264 323 251 321 Q160 315 133 309 Q100 303 80 328 Q59 355 76 381 Q91 407 123 412 Q158 418 250 427 Q259 429 272 429 Q272 441 271 451 Q237 448 204 449 Q137 460 109 500 Q81 538 85 589 Q85 628 108 673 Q74 670 57 697 Q51 709 49 723 Q49 735 59 750 Q76 774 108 776 Q132 778 182 777 Q199 801 220 817 Q240 843 263 844 Q280 843 298 827 Q324 805 316 775 Q361 772 402 768 Q438 764 453 731 Q465 703 445 679 Q426 658 394 661 Z" /><glyph glyph-name="uni6700" unicode="&#x6700;" d="M480 831 Q518 830 551 832 Q718 831 788 801 Q871 762 875 660 Q878 552 796 507 Q714 462 533 457 Q349 453 269 478 Q187 502 155 559 Q124 615 119 720 Q116 788 177 790 Q236 793 238 722 Q241 652 257 616 Q272 583 323 566 Q373 553 485 556 Q638 562 703 591 Q768 617 768 660 Q768 701 721 720 Q673 737 515 736 Q448 730 426 724 Q405 718 405 706 Q408 685 466 691 Q522 697 575 700 Q611 705 633 696 Q654 687 659 657 Q665 629 646 614 Q625 602 584 594 Q440 575 371 590 Q304 605 282 682 Q282 741 329 786 Q373 830 480 831 ZM451 433 Q688 442 875 430 Q910 429 928 397 Q931 385 935 372 Q929 321 873 323 Q713 337 508 331 Q511 285 516 182 L516 79 Q545 78 561 53 Q575 26 560 5 Q545 -19 512 -17 L512 -24 Q509 -63 478 -77 Q466 -83 454 -83 Q436 -83 425 -71 Q401 -55 405 -19 Q365 -22 317 -25 Q206 -37 173 -44 Q143 -50 125 -27 Q107 -8 121 20 Q133 43 162 49 Q162 49 167 50 Q170 113 169 191 Q166 280 161 308 Q161 311 160 313 Q139 312 127 308 Q94 304 75 329 Q66 344 65 357 Q71 408 120 412 Q215 421 451 433 ZM404 327 Q323 324 264 320 Q264 317 266 313 Q266 304 267 289 Q273 289 281 290 Q317 293 346 293 Q375 292 388 268 Q400 244 385 227 Q370 209 346 209 Q316 211 282 208 L272 208 Q272 201 273 188 L273 180 Q279 180 289 181 Q322 184 350 184 Q379 183 392 158 Q403 136 389 117 Q374 99 350 100 Q323 100 291 99 Q282 99 274 98 Q274 82 273 63 Q291 65 315 67 Q366 73 411 76 L411 187 Q408 286 404 327 ZM585 283 Q677 304 754 304 Q831 304 867 274 Q903 246 902 206 Q902 167 872 132 Q854 107 827 75 Q854 62 877 47 Q907 28 908 -6 Q908 -41 880 -51 Q850 -63 825 -46 Q794 -25 752 -5 Q725 -31 692 -63 Q670 -83 634 -81 Q601 -78 596 -43 Q590 -9 616 16 Q628 30 645 46 Q621 55 611 59 Q580 68 576 102 Q570 132 599 148 Q625 163 655 153 Q673 147 717 127 Q732 145 749 164 Q758 179 758 186 Q755 191 718 191 Q669 191 596 176 Q572 173 552 191 Q531 212 542 243 Q551 275 585 283 Z" /><glyph glyph-name="uni6709" unicode="&#x6709;" d="M858 607 Q677 625 442 620 Q396 620 358 618 Q342 584 318 543 Q312 539 312 533 Q314 533 320 535 Q412 555 513 559 Q612 562 706 543 Q744 534 775 504 Q805 474 815 434 Q821 413 827 354 Q833 294 835 200 Q835 107 820 -1 Q810 -63 753 -56 Q698 -50 707 5 Q719 89 720 165 Q720 324 702 389 Q693 419 664 429 Q606 446 525 439 Q450 435 359 419 L363 338 Q396 341 444 345 Q533 351 603 348 Q641 347 660 313 Q675 282 656 257 Q637 232 602 233 Q535 236 444 231 Q395 230 366 227 L366 144 Q396 147 463 150 Q543 156 604 152 Q642 149 660 118 Q675 87 655 61 Q636 37 601 38 Q442 46 361 30 Q361 14 359 -5 Q356 -49 320 -64 Q307 -70 293 -71 Q275 -71 260 -59 Q233 -35 237 0 Q249 111 246 256 Q243 361 241 410 Q201 346 163 291 Q138 257 98 258 Q56 261 47 295 Q44 307 43 317 Q43 340 57 358 Q132 465 217 612 Q165 609 137 605 Q98 601 75 631 Q56 663 74 693 Q95 725 131 729 Q184 732 284 737 Q308 784 318 806 Q333 842 371 846 Q371 845 374 846 Q409 845 426 814 Q441 781 427 748 Q424 747 424 743 L452 743 Q683 749 862 733 Q907 730 925 694 Q931 681 933 665 Q930 647 919 632 Q895 605 858 607 Z" /><glyph glyph-name="uni675F" unicode="&#x675f;" d="M114 762 Q206 771 438 776 Q432 814 464 834 Q479 843 495 845 Q507 844 523 835 Q553 814 558 778 Q734 780 880 767 Q921 764 939 729 Q945 714 947 700 Q944 684 934 668 Q910 641 875 645 Q734 659 563 659 Q563 638 564 610 Q689 607 789 579 Q891 554 888 396 Q891 272 779 244 Q683 222 566 215 L566 181 Q596 178 635 168 Q716 150 841 89 Q873 77 879 34 Q885 -7 851 -21 Q815 -36 773 -20 Q665 28 601 40 Q577 45 560 48 Q557 15 555 -17 Q552 -61 516 -76 Q501 -82 488 -83 Q472 -83 455 -70 Q430 -48 433 -12 L438 56 Q407 55 370 43 Q294 22 206 -20 Q178 -34 146 -17 Q118 1 124 39 Q130 77 175 99 Q345 183 446 188 Q446 199 447 215 Q330 217 274 223 Q117 237 116 361 Q116 403 140 450 Q163 497 161 532 Q158 594 219 596 Q242 596 259 586 Q352 603 446 608 Q446 635 445 658 L439 658 Q193 652 119 643 Q82 639 61 668 Q52 683 50 699 Q50 714 60 729 Q80 758 114 762 ZM311 338 Q361 332 450 333 L450 442 Q450 466 449 491 Q382 487 318 474 Q290 470 268 469 Q265 460 260 451 Q236 417 238 385 Q238 349 311 338 ZM569 430 Q569 382 568 334 Q627 334 681 341 Q749 352 753 410 Q747 481 689 490 Q635 498 567 496 Q567 466 569 430 Z" /><glyph glyph-name="uni6807" unicode="&#x6807;" d="M163 59 Q172 158 174 273 Q156 266 140 250 Q113 231 81 242 Q50 254 49 294 Q49 332 89 360 Q136 392 174 407 L174 427 Q171 489 170 538 Q134 537 120 533 Q83 529 61 559 Q49 573 51 589 Q51 604 60 618 Q80 648 114 652 Q129 655 164 658 Q161 682 161 697 Q155 736 187 756 Q216 777 246 757 Q276 736 280 702 Q280 686 282 663 Q306 663 332 661 Q373 658 393 623 Q410 589 387 563 Q363 536 328 539 Q310 541 289 541 Q289 489 293 418 L293 406 Q299 405 307 400 Q339 385 389 345 Q415 323 408 281 Q402 241 364 236 Q330 235 294 261 Q294 150 285 54 Q282 9 247 -6 Q213 -24 186 0 Q159 23 163 59 ZM649 677 Q556 677 528 673 Q491 670 470 699 Q449 731 471 760 Q491 789 525 792 Q561 794 656 796 Q671 795 688 796 Q760 795 822 791 Q864 787 882 751 Q897 717 874 690 Q850 666 815 669 Q743 678 649 677 ZM448 278 Q537 337 598 359 Q612 365 627 369 Q624 405 621 434 Q618 445 622 454 Q505 453 467 446 Q428 443 407 473 Q388 502 407 533 Q428 563 463 566 Q513 569 647 574 Q775 577 880 567 Q921 564 939 528 Q945 515 946 501 Q943 483 934 468 Q910 443 874 445 Q810 451 736 454 Q742 423 746 363 Q808 344 911 256 Q938 234 932 191 Q926 151 889 146 Q850 145 814 171 Q780 200 752 218 Q752 155 748 73 Q736 -20 686 -47 Q659 -68 619 -66 Q601 -66 584 -63 Q553 -59 528 -45 Q497 -30 487 5 Q478 38 504 58 Q528 75 564 63 Q576 60 594 56 Q609 53 615 57 Q621 62 629 104 Q632 182 633 242 Q615 238 599 229 Q551 205 499 168 Q472 149 439 160 Q408 172 409 212 Q409 250 448 278 Z" /><glyph glyph-name="uni699C" unicode="&#x699c;" d="M755 251 Q700 254 629 252 Q629 236 625 207 L634 207 Q663 207 681 203 Q752 197 791 159 Q826 123 837 79 Q846 45 840 3 Q822 -53 789 -65 Q777 -68 769 -69 Q748 -69 736 -53 Q717 -26 729 3 Q734 30 728 54 Q725 74 711 88 Q696 102 662 109 Q650 109 628 107 Q622 107 615 106 Q606 40 594 -16 Q585 -54 550 -65 Q538 -68 529 -69 Q510 -69 494 -52 Q473 -28 481 6 Q496 71 508 158 Q514 214 518 243 Q488 242 473 265 Q452 291 471 319 Q488 346 521 351 Q538 354 583 356 Q583 362 582 364 Q579 373 579 376 Q573 414 605 436 Q634 456 664 437 Q694 416 698 382 Q698 378 702 365 L703 362 Q730 362 757 361 Q795 360 812 328 Q826 298 807 272 Q786 250 755 251 ZM454 435 Q457 398 459 367 Q456 328 426 310 Q393 292 369 313 Q344 333 345 366 Q345 395 341 431 Q338 467 335 479 Q329 514 356 534 Q380 555 409 540 Q415 543 425 545 Q437 548 452 551 Q449 575 442 605 Q436 626 435 641 Q420 641 409 638 Q375 634 355 659 Q336 686 355 714 Q372 740 403 745 Q451 751 568 757 L564 772 Q557 808 585 831 Q600 842 617 844 Q629 843 643 836 Q672 818 679 785 Q679 779 685 765 Q685 764 686 761 Q782 763 866 756 Q905 753 921 723 Q936 692 916 667 Q895 643 863 646 Q857 646 852 647 Q852 637 850 609 Q847 585 843 562 Q881 550 908 523 Q958 469 960 408 Q957 390 955 370 Q934 312 902 298 Q868 286 848 313 Q827 339 840 370 Q858 418 823 446 Q810 460 770 466 Q716 472 618 462 Q531 453 454 435 ZM737 651 Q673 651 602 649 Q569 649 544 647 Q544 638 550 622 Q556 594 562 565 Q591 568 625 570 Q681 573 726 574 Q726 579 728 583 Q731 604 735 632 Q735 644 737 651 ZM330 595 Q345 561 324 534 Q302 510 265 512 Q256 512 248 513 Q245 464 247 409 Q247 409 252 406 Q284 391 329 352 Q353 328 346 286 Q337 246 300 244 Q273 244 251 257 Q254 116 264 66 Q267 29 238 7 Q210 -14 179 6 Q149 27 145 61 Q139 126 132 268 Q129 267 129 264 Q105 242 71 249 Q40 258 34 297 Q34 300 34 303 Q34 338 65 367 Q101 393 128 407 Q125 460 127 511 Q121 511 119 509 Q82 506 60 535 Q39 565 60 596 Q80 625 115 629 Q121 629 131 631 Q131 663 136 692 Q139 736 174 753 Q209 771 234 747 Q261 725 258 689 Q255 664 253 635 Q312 635 330 595 Z" /><glyph glyph-name="uni6A21" unicode="&#x6a21;" d="M595 777 Q682 777 761 774 Q761 780 762 784 Q762 823 797 836 Q809 841 819 841 Q837 840 855 826 Q878 804 877 769 L877 767 Q883 767 894 765 Q935 762 950 727 Q956 714 957 700 Q954 684 943 668 Q921 644 887 647 Q875 649 862 650 Q852 611 815 601 Q781 592 759 617 Q741 638 744 659 Q668 662 585 662 L520 662 Q520 623 491 601 Q463 580 433 598 Q400 616 401 659 Q379 658 363 655 Q326 652 307 682 Q286 711 307 739 Q327 768 360 771 Q366 771 378 772 Q375 801 396 819 Q414 836 432 835 Q441 835 454 829 Q484 814 494 782 L494 776 Q538 776 595 777 ZM615 605 Q803 592 869 549 Q934 509 928 424 Q934 327 863 282 Q799 243 655 230 Q661 211 658 189 Q775 192 876 186 Q917 183 935 149 Q949 118 930 91 Q906 66 873 68 L787 74 L821 34 Q845 -1 831 -34 Q816 -70 782 -68 Q751 -68 729 -39 Q705 -11 672 27 Q636 63 625 74 Q619 74 611 73 Q583 3 553 -47 Q532 -82 494 -83 Q457 -83 444 -53 Q431 -23 448 8 Q463 34 480 68 Q411 65 381 60 Q342 54 323 83 Q304 113 321 142 Q339 171 374 175 Q421 180 534 186 Q546 213 550 226 Q550 228 551 230 Q472 236 434 252 Q376 275 353 317 Q332 361 332 438 Q332 504 392 503 Q412 503 427 492 Q436 534 472 566 Q516 608 615 605 ZM591 324 Q717 335 772 359 Q826 383 823 420 Q826 449 795 471 Q761 491 637 510 Q582 509 563 503 Q545 499 545 488 Q545 475 587 472 Q628 471 667 465 Q741 465 740 411 Q740 383 721 372 Q700 363 659 362 Q539 362 485 384 Q463 393 446 411 Q446 354 493 337 Q523 327 591 324 ZM240 413 Q273 395 322 355 Q346 334 339 295 Q330 258 296 255 Q263 255 236 275 Q239 134 248 83 Q251 49 225 27 Q195 8 168 26 Q138 46 137 78 Q131 138 126 269 Q105 245 74 248 Q43 251 34 288 Q34 297 32 305 Q32 331 55 357 Q93 393 122 412 L122 522 Q104 522 99 520 Q63 517 44 546 Q35 560 35 572 Q35 587 46 603 Q67 629 99 632 Q107 632 126 633 Q126 674 132 711 Q135 750 168 767 Q200 782 225 762 Q248 741 246 707 Q243 673 240 633 Q252 633 264 631 Q302 627 317 593 Q332 560 310 536 Q286 514 254 518 Q245 518 234 520 Q231 469 233 416 Q236 416 240 413 Z" /><glyph glyph-name="uni6CA1" unicode="&#x6ca1;" d="M397 361 Q556 406 690 405 Q776 405 816 373 Q855 343 856 297 Q856 254 822 215 Q791 175 739 124 Q804 96 860 66 Q899 47 901 5 Q901 -34 870 -50 Q839 -65 806 -47 Q736 -8 642 32 Q591 -15 531 -65 Q509 -80 482 -81 Q475 -78 467 -80 Q431 -74 429 -36 Q426 2 457 25 L520 82 Q469 100 449 105 Q412 116 404 153 Q398 192 429 211 Q458 231 494 220 Q533 208 616 174 Q655 212 689 250 Q698 265 697 271 Q691 277 648 277 Q549 277 408 238 Q383 234 358 257 Q336 280 348 316 Q359 352 397 361 ZM486 609 Q486 525 481 459 Q477 417 441 399 Q407 386 381 407 Q354 431 359 467 Q365 532 366 616 Q366 702 363 727 Q357 765 390 784 Q413 799 436 791 Q573 826 674 827 Q689 826 701 826 Q754 826 786 798 Q816 771 813 711 Q813 687 809 648 Q806 611 808 575 Q802 533 830 532 Q842 534 876 549 Q914 564 939 537 Q951 521 954 502 Q951 489 948 477 Q935 444 890 426 Q842 416 821 417 Q751 417 724 458 Q694 499 695 547 Q692 567 696 610 L701 681 Q701 708 677 703 Q601 708 484 678 Q484 650 486 609 ZM218 323 Q145 350 102 355 Q63 361 53 397 L50 415 Q50 439 70 455 Q97 478 133 471 Q148 468 189 458 Q228 449 260 438 Q298 422 305 383 Q311 344 281 327 Q253 309 218 323 ZM156 193 Q186 219 194 228 Q221 255 259 243 Q294 231 297 194 Q297 158 272 133 Q262 121 230 94 Q197 67 172 48 Q133 24 99 43 Q63 61 66 97 Q69 132 101 151 Q124 168 156 193 ZM168 594 Q131 606 117 608 Q80 617 71 653 Q62 689 92 710 Q121 731 154 722 Q169 719 212 706 Q250 694 283 681 Q322 663 325 624 Q328 587 298 569 Q268 554 235 568 Q207 582 168 594 Z" /><glyph glyph-name="uni6D88" unicode="&#x6d88;" d="M174 188 Q212 215 224 226 Q253 250 289 236 Q325 223 323 184 Q323 147 294 125 Q279 113 238 83 Q198 53 165 35 Q128 14 92 35 Q56 56 63 92 Q69 127 103 144 Q135 161 174 188 ZM138 348 L89 359 Q50 365 41 401 L38 419 Q38 445 60 459 Q86 482 121 474 Q136 473 176 462 Q214 453 244 441 Q283 426 289 387 Q295 348 265 331 Q235 313 202 327 Q177 339 138 348 ZM154 604 L115 613 Q78 619 67 656 Q60 692 87 713 Q116 736 149 727 Q161 726 194 717 Q224 710 250 700 Q288 684 294 645 Q297 606 269 589 Q239 573 205 586 Q184 595 154 604 ZM812 727 Q829 747 834 755 Q858 784 894 779 Q929 773 937 737 Q934 730 938 722 Q935 695 922 675 Q916 666 897 642 Q879 618 861 602 Q830 575 792 586 Q755 598 753 633 Q750 666 777 690 Q792 705 812 727 ZM365 647 Q346 661 338 667 Q305 688 312 726 Q314 761 352 770 Q387 778 414 758 Q423 752 446 734 Q517 685 504 634 Q492 597 458 593 Q424 590 399 616 Q386 630 365 647 ZM365 -2 Q371 112 362 261 Q353 407 346 453 Q340 491 369 513 Q396 531 424 519 Q433 524 444 526 Q500 541 560 548 Q560 556 561 563 Q566 617 571 688 Q571 757 572 780 Q569 819 602 837 Q616 843 630 845 Q648 844 662 833 Q689 812 691 776 Q691 749 690 677 Q690 610 682 556 Q741 556 801 544 Q842 535 876 502 Q908 471 919 428 Q922 404 925 343 Q925 282 921 184 Q918 87 892 -23 Q883 -83 832 -84 Q826 -81 819 -83 Q758 -74 771 -18 Q788 68 797 146 Q809 316 797 379 Q788 412 756 422 Q704 436 632 428 Q562 419 474 401 L471 401 Q471 379 476 349 Q502 352 553 356 Q624 362 678 362 Q719 361 739 327 Q757 294 736 267 Q714 240 679 240 Q627 242 556 236 Q508 233 484 230 Q484 194 486 158 Q507 161 564 168 Q621 174 665 175 Q706 175 728 140 Q745 107 725 79 Q704 54 667 53 Q624 53 569 48 Q514 44 498 39 L487 39 L487 -2 Q484 -46 450 -63 Q419 -81 390 -60 Q363 -39 365 -2 Z" /><glyph glyph-name="uni6E38" unicode="&#x6e38;" d="M619 606 Q637 648 652 704 Q667 760 671 778 Q677 816 713 826 L730 829 Q754 828 771 808 Q791 780 785 746 Q782 740 782 730 Q830 730 886 723 Q927 716 941 679 Q953 643 930 619 Q906 597 870 602 Q830 607 778 610 Q762 610 749 611 Q740 587 733 564 Q717 525 679 520 Q640 514 623 544 Q605 573 619 606 ZM740 509 Q838 520 882 481 Q926 441 899 369 Q889 341 870 305 Q867 301 865 296 Q874 296 884 297 Q925 299 947 267 Q956 249 958 233 Q955 220 949 206 Q933 178 895 175 L874 175 Q889 138 886 96 Q886 48 867 12 Q851 -27 842 -41 Q818 -79 775 -83 Q772 -83 769 -83 Q730 -83 726 -52 Q720 -16 735 12 L755 51 Q770 77 771 104 Q771 133 760 159 Q711 150 694 145 Q657 136 632 162 Q608 189 623 222 Q638 254 673 262 Q694 268 739 277 Q742 289 750 307 Q768 357 773 369 Q776 380 774 385 Q774 388 745 388 Q727 388 699 380 Q662 371 632 389 Q605 406 619 442 Q634 478 670 489 Q711 504 740 509 ZM115 368 L80 378 Q43 387 35 423 Q35 431 33 437 Q33 463 57 480 Q86 500 120 490 Q132 487 160 480 Q187 471 210 462 Q248 443 251 404 Q254 367 224 351 Q191 336 160 351 Q139 359 115 368 ZM129 232 Q158 258 167 267 Q194 294 231 282 Q267 270 270 233 Q270 197 245 172 Q233 160 202 133 Q171 106 145 87 Q106 63 71 82 Q37 100 39 136 Q42 171 73 190 Q97 207 129 232 ZM104 588 Q83 597 75 600 Q35 614 35 655 Q35 688 63 703 Q96 720 128 706 Q160 696 203 674 Q239 650 237 611 Q234 574 203 561 Q172 549 141 568 Q126 577 104 588 ZM260 34 Q283 165 297 337 Q309 508 307 562 Q283 565 271 586 Q252 615 271 647 Q291 676 326 680 Q341 682 373 684 Q373 692 372 702 L368 728 Q362 766 394 787 Q423 808 453 788 Q483 767 487 733 L492 703 Q492 696 494 687 Q512 687 532 685 Q574 682 592 646 Q607 612 586 586 Q562 559 527 563 Q478 566 417 566 Q417 562 418 556 Q418 534 416 496 L426 496 Q564 496 589 391 Q592 370 598 312 Q601 254 602 162 Q602 72 583 -32 Q574 -82 532 -83 Q526 -83 523 -82 Q474 -76 482 -27 Q494 54 499 130 Q502 204 498 264 Q495 323 487 351 Q477 389 411 389 Q408 358 407 319 Q395 150 373 20 Q367 -22 332 -33 Q301 -45 276 -22 Q254 1 260 34 Z" /><glyph glyph-name="uni7684" unicode="&#x7684;" d="M468 559 Q491 612 518 686 Q541 757 547 780 Q556 819 592 828 Q601 827 608 830 Q632 829 650 808 Q671 778 663 742 Q657 724 645 682 L665 682 Q715 682 744 677 Q833 670 877 623 Q921 580 933 525 Q939 465 939 404 Q938 214 871 16 Q849 -55 810 -68 Q795 -71 786 -73 Q761 -73 745 -52 Q723 -22 736 16 Q837 259 801 495 Q798 519 780 536 Q764 553 721 562 Q673 567 602 555 Q593 531 584 511 Q563 471 525 467 Q488 464 469 494 Q451 526 468 559 ZM607 195 Q561 251 530 271 Q502 295 508 333 Q517 369 553 376 Q588 382 617 358 Q626 351 656 324 Q683 300 703 277 Q730 243 716 205 Q701 169 666 167 Q632 167 607 195 ZM449 334 Q446 61 401 7 Q358 -46 268 -45 Q165 -48 114 16 Q65 78 64 291 Q73 495 56 564 Q50 581 51 593 Q51 632 95 649 Q130 664 155 644 Q164 649 176 654 Q185 677 191 707 Q197 737 199 745 Q205 784 243 796 Q279 807 303 777 Q323 749 318 713 Q315 701 310 669 Q369 663 402 624 Q444 578 449 334 ZM257 391 Q292 391 320 386 Q323 386 330 384 Q324 528 313 542 Q298 559 265 558 Q235 558 189 536 Q192 484 192 391 Q198 391 208 392 Q220 392 257 391 ZM301 262 Q274 265 241 268 Q198 270 190 270 Q187 132 205 104 Q223 77 261 76 Q293 76 310 98 Q321 115 329 262 Q314 259 301 262 Z" /><glyph glyph-name="uni76EE" unicode="&#x76ee;" d="M843 693 Q902 555 903 351 Q900 341 903 331 Q900 325 903 319 Q900 141 818 37 Q731 -68 527 -72 Q329 -69 248 -10 Q166 49 129 123 Q93 195 93 282 Q93 383 140 500 Q187 613 147 699 Q122 758 178 784 Q234 811 262 752 Q262 749 266 741 Q415 816 562 827 Q781 826 843 693 ZM513 590 Q591 590 629 553 Q664 514 633 464 Q621 449 607 436 Q594 423 565 397 Q537 375 505 342 Q475 309 467 303 Q461 296 461 293 Q461 290 470 289 L482 289 Q497 289 538 296 Q576 302 602 312 Q625 320 637 324 Q663 329 686 305 Q706 281 696 245 Q686 211 641 200 Q626 196 589 186 Q550 177 486 168 Q422 159 371 159 Q304 159 289 191 Q274 224 277 252 Q280 281 311 315 Q325 332 357 362 Q390 392 416 414 Q443 435 455 443 Q476 460 477 461 Q474 463 446 463 Q421 463 375 457 Q332 451 286 434 Q255 422 236 414 Q220 354 219 311 Q213 170 291 110 Q368 52 522 49 Q660 51 717 118 Q773 186 771 344 Q773 517 732 619 Q692 720 542 709 Q419 696 338 636 Q311 618 291 614 Q291 587 284 559 Q331 571 399 580 Q473 589 513 590 Z" /><glyph glyph-name="uni79BB" unicode="&#x79bb;" d="M553 780 Q735 779 887 763 Q925 760 942 727 Q945 714 948 702 Q945 684 936 670 Q915 646 881 648 Q784 660 673 665 Q673 638 655 620 Q636 601 589 563 Q615 544 642 523 Q668 502 665 470 Q662 460 658 452 Q700 455 751 461 L751 487 Q748 543 746 561 Q740 599 772 619 Q802 640 833 620 Q863 599 865 564 Q868 543 871 484 Q874 427 871 382 Q868 340 832 322 Q798 307 772 328 Q763 336 759 343 L756 342 L555 328 Q549 319 543 312 Q531 300 522 287 Q660 290 793 263 Q831 254 860 225 Q890 197 898 158 Q898 149 901 123 Q901 98 900 58 Q897 16 889 -28 Q880 -81 835 -82 Q829 -79 824 -81 Q769 -75 779 -22 Q785 7 789 34 Q792 94 789 114 Q780 144 753 153 Q710 167 660 171 Q663 165 669 155 Q675 139 693 88 Q708 40 719 -1 Q725 -36 701 -58 Q679 -78 650 -66 Q625 -56 619 -24 Q616 -20 615 -11 Q612 -11 611 -13 Q574 -25 527 -34 Q484 -43 438 -39 Q372 -30 344 12 Q314 50 319 101 Q316 124 323 149 Q277 145 230 135 Q230 120 233 104 Q239 43 241 -7 Q241 -51 206 -71 Q188 -80 175 -80 Q157 -80 144 -69 Q114 -50 116 -11 Q116 37 109 98 Q103 158 100 176 Q91 214 121 238 Q148 261 181 245 Q277 269 386 278 Q398 301 413 321 Q337 318 273 318 Q212 318 174 353 Q135 386 129 453 Q126 483 130 515 Q139 619 178 634 Q210 649 237 625 Q264 601 260 565 Q257 553 255 530 Q252 509 254 482 Q254 454 259 447 Q271 431 295 430 Q319 430 351 432 Q333 444 336 467 Q336 494 362 511 Q389 529 423 553 Q374 585 354 594 Q327 609 325 638 Q325 658 336 668 Q173 667 112 658 Q78 654 58 683 Q49 695 48 711 Q48 725 58 738 Q75 767 108 770 Q203 776 438 779 Q434 812 457 833 Q472 845 489 846 Q501 845 513 840 Q542 825 550 792 Q550 789 553 780 ZM420 669 Q449 651 505 617 Q540 649 564 669 L420 669 ZM510 498 Q464 464 425 435 Q493 438 581 445 Q550 472 510 498 ZM453 71 Q489 70 522 77 Q551 85 572 91 Q575 94 583 97 Q577 117 573 124 Q561 151 577 175 Q546 175 512 171 Q479 170 444 165 Q431 137 426 110 Q414 68 453 71 Z" /><glyph glyph-name="uni79F0" unicode="&#x79f0;" d="M622 346 Q613 436 604 500 Q601 533 629 560 Q656 583 689 564 Q722 546 727 500 Q735 436 745 335 Q754 236 750 83 Q744 34 729 3 Q711 -27 686 -41 Q665 -62 639 -66 Q624 -69 607 -68 Q594 -65 577 -67 Q543 -64 518 -53 Q482 -38 471 -4 Q459 31 482 52 Q506 72 545 62 Q563 61 585 60 Q606 60 612 66 Q621 71 627 115 Q630 253 622 346 ZM443 322 Q461 378 467 396 Q476 432 512 441 Q547 449 568 420 Q589 390 579 356 Q573 335 555 276 Q534 221 516 177 Q495 138 458 136 Q421 133 404 163 Q391 195 404 226 Q422 267 443 322 ZM829 213 Q807 287 784 326 Q766 361 788 391 Q809 420 845 411 Q880 402 895 371 Q900 356 919 318 Q934 281 945 249 Q945 237 948 227 Q945 199 930 180 Q903 153 870 165 Q839 177 829 213 ZM138 732 Q176 735 225 747 Q272 756 288 762 Q324 773 350 746 Q373 721 360 687 Q347 654 312 645 Q303 644 286 639 L280 552 Q304 552 327 549 Q369 545 386 509 Q401 473 378 448 Q354 424 318 427 Q299 430 276 431 Q276 404 277 376 Q283 375 294 370 Q323 358 367 328 Q394 307 393 266 Q390 224 353 218 Q317 212 279 234 Q282 101 291 51 Q294 12 266 -9 Q236 -29 205 -10 Q177 11 172 45 Q166 108 161 248 Q143 242 128 234 Q98 221 68 237 Q46 252 45 280 Q48 286 46 293 Q52 331 97 353 Q129 367 158 376 Q158 406 157 433 Q135 433 125 430 Q88 427 66 457 Q47 489 68 518 Q89 547 124 549 Q136 551 159 552 Q159 584 161 613 Q155 613 152 612 Q109 609 87 641 Q63 671 83 701 Q101 731 138 732 ZM391 607 Q438 717 447 776 Q456 815 491 823 Q500 822 507 825 Q530 824 548 804 Q566 780 563 752 Q577 755 600 758 Q671 770 734 772 Q946 772 947 588 Q934 492 866 510 Q799 527 825 598 Q825 604 824 618 Q824 632 815 641 Q784 656 719 653 Q655 649 600 637 Q552 628 525 621 Q515 590 504 562 Q486 523 447 519 Q410 516 393 545 Q375 574 391 607 Z" /><glyph glyph-name="uni7B2C" unicode="&#x7b2c;" d="M338 601 Q554 618 692 606 Q685 623 687 642 Q687 650 684 664 Q681 673 681 677 Q629 680 623 683 L602 647 Q575 617 540 620 Q506 623 496 655 Q487 687 508 713 Q526 737 544 770 Q562 802 567 814 Q582 844 617 847 Q653 846 665 816 Q671 804 671 789 Q760 789 877 770 Q915 763 929 728 Q932 718 933 707 Q930 686 916 672 Q892 651 859 657 Q831 663 796 668 L796 665 Q799 650 801 639 Q798 609 780 594 Q807 587 819 572 Q834 556 848 525 Q854 479 850 437 Q835 389 807 370 Q777 349 735 347 Q654 343 564 339 Q564 318 565 292 Q613 292 659 288 Q757 279 806 235 Q896 160 866 15 Q847 -50 791 -30 Q736 -14 750 41 Q759 118 729 147 Q687 171 619 175 Q597 177 568 176 Q568 73 563 -16 Q560 -60 524 -76 Q511 -82 496 -84 Q478 -84 464 -70 Q437 -51 440 -12 L446 99 Q421 75 380 41 Q310 -15 252 -55 Q218 -75 186 -60 Q153 -45 155 -11 Q158 22 187 39 Q246 75 314 133 Q326 144 338 152 Q298 146 256 137 Q195 122 169 141 Q145 161 146 219 L144 387 Q147 437 202 437 Q214 437 229 433 L440 433 L436 505 Q330 502 201 491 Q149 485 146 536 Q143 587 197 588 L284 597 L281 599 Q256 616 252 650 Q252 662 247 676 L206 676 Q188 645 172 618 Q148 587 112 589 Q78 592 66 623 Q63 634 63 643 Q63 663 76 681 Q97 711 121 755 Q142 797 149 811 Q164 846 204 846 Q234 846 247 817 Q253 804 254 787 L307 787 Q372 787 421 780 Q459 774 475 740 Q486 709 465 685 Q441 661 409 666 Q387 669 363 672 Q363 669 366 661 Q366 621 338 601 ZM445 336 L261 336 L263 258 Q341 273 447 284 L447 295 Q444 316 445 336 ZM555 508 Q555 481 560 436 Q641 438 725 442 Q742 448 736 466 Q736 475 737 484 Q740 498 727 506 Q657 511 555 508 Z" /><glyph glyph-name="uni7B51" unicode="&#x7b51;" d="M178 141 Q184 200 187 277 L187 370 Q142 369 127 365 Q90 361 68 391 Q49 420 67 451 Q88 481 122 484 Q149 487 222 490 Q293 493 349 489 Q390 486 408 451 Q423 417 402 391 Q380 364 344 367 Q326 369 306 370 Q306 339 307 268 Q307 205 301 150 Q327 152 353 151 Q394 151 415 116 Q433 85 412 56 Q391 29 355 29 Q295 31 221 23 Q145 19 123 12 Q86 6 63 34 Q51 49 52 66 Q52 80 59 95 Q76 124 111 131 L178 141 ZM485 672 Q503 702 525 746 Q546 790 551 804 Q563 839 602 843 Q605 842 607 843 Q637 842 654 815 Q663 799 663 777 Q690 777 735 774 Q815 771 877 762 Q918 755 934 718 Q945 682 923 658 Q896 636 862 641 Q843 644 821 647 Q821 643 824 635 Q824 592 792 571 Q761 552 731 571 Q694 597 695 657 Q637 660 616 658 Q601 633 591 610 Q567 576 528 575 Q491 577 478 609 Q466 642 485 672 ZM56 672 Q73 702 96 746 Q116 790 121 804 Q133 839 172 843 Q175 842 178 843 Q207 842 225 815 Q233 799 233 777 L284 777 Q349 777 402 772 Q444 768 460 730 Q475 696 451 671 Q429 646 392 650 Q380 652 365 653 Q365 644 369 633 Q369 591 340 568 Q307 549 279 565 Q251 585 248 620 Q245 637 241 657 Q204 657 190 656 L186 656 Q174 632 161 610 Q139 576 99 575 Q60 577 48 609 Q45 621 44 633 Q44 654 56 672 ZM445 -11 Q457 109 459 266 Q459 421 453 468 Q453 471 452 476 L452 483 Q449 519 483 530 Q486 532 490 533 L492 533 Q504 536 503 536 Q500 536 499 535 Q655 564 744 541 Q833 519 847 424 Q856 372 836 245 Q815 122 825 69 Q831 42 862 56 Q898 88 937 47 Q954 26 955 7 Q952 -14 935 -33 Q890 -72 845 -69 Q799 -69 751 -30 Q705 11 715 166 Q679 177 634 185 Q592 191 577 193 Q577 78 566 -18 Q563 -62 527 -76 Q514 -82 500 -83 Q479 -83 467 -69 Q440 -47 445 -11 ZM573 431 L577 312 Q583 312 594 311 Q611 311 661 302 Q697 296 729 289 Q740 412 723 426 Q687 450 573 431 Z" /><glyph glyph-name="uni7EAA" unicode="&#x7eaa;" d="M223 121 Q288 130 307 134 Q348 143 374 112 Q398 82 380 47 Q362 11 324 5 Q299 -1 231 -11 Q165 -20 112 -21 Q66 -21 44 15 Q35 32 33 49 Q33 67 44 81 Q68 111 106 111 Q157 111 223 121 ZM183 179 Q110 190 75 234 Q44 279 46 336 Q46 377 81 430 Q93 450 107 468 Q100 474 91 484 Q58 529 62 586 Q62 624 98 674 Q130 724 163 752 Q187 782 213 783 Q234 783 256 764 Q306 719 260 670 Q239 655 218 635 Q197 616 189 597 Q173 551 215 549 Q233 552 246 560 Q261 565 269 571 Q322 603 351 544 Q383 475 258 438 Q252 438 246 435 L244 432 Q222 414 202 390 Q181 368 174 347 Q156 301 199 299 Q226 299 248 306 Q269 312 284 317 Q337 349 366 290 Q396 232 327 204 Q296 192 258 185 Q219 176 183 179 ZM632 803 Q715 802 795 784 Q839 771 871 744 Q901 719 919 666 Q934 602 934 514 Q934 426 915 378 Q897 342 868 315 Q816 272 676 271 Q621 271 538 286 Q526 190 534 127 Q546 52 627 42 Q665 39 741 48 Q818 57 868 69 Q927 87 943 28 Q946 15 947 3 Q944 -35 907 -46 Q861 -55 774 -68 Q708 -77 646 -78 Q628 -78 615 -77 Q528 -68 480 -23 Q434 21 418 91 Q409 165 416 247 Q422 331 430 384 Q436 438 495 435 Q522 434 538 416 L542 416 Q586 403 653 397 Q718 393 753 399 Q788 408 804 438 Q819 480 818 523 Q815 568 802 614 Q793 650 760 661 Q708 679 629 674 Q550 670 494 661 Q436 658 427 717 Q418 777 484 790 Q549 801 632 803 Z" /><glyph glyph-name="uni7ED3" unicode="&#x7ed3;" d="M228 117 Q294 129 318 134 Q357 145 384 115 Q407 87 392 52 Q374 16 339 9 Q312 3 240 -10 Q170 -22 113 -26 Q67 -26 46 7 Q34 25 34 42 Q40 101 103 104 Q156 104 228 117 ZM181 182 Q108 191 76 236 Q45 280 49 334 Q49 375 83 429 Q95 449 109 468 Q99 477 92 486 Q59 530 64 584 Q64 623 100 673 Q135 723 165 751 Q206 805 255 763 Q302 718 258 672 Q237 656 216 634 Q195 613 188 595 Q170 550 212 549 Q227 552 241 559 Q253 565 262 570 Q312 600 342 543 Q368 488 304 460 Q280 450 252 440 Q249 440 246 438 Q243 438 242 434 Q223 415 200 390 Q181 366 172 345 Q154 300 196 299 Q223 299 248 305 Q272 311 285 316 Q335 346 365 289 Q392 234 327 206 Q296 196 256 187 Q217 180 181 182 ZM709 734 Q805 734 892 728 Q933 725 951 689 Q957 676 958 661 Q955 643 945 629 Q923 602 887 605 Q808 613 713 614 Q713 566 711 522 L711 520 Q794 522 867 517 Q909 514 928 479 Q943 445 922 418 Q898 391 864 395 Q756 403 617 397 Q479 393 437 385 Q398 381 377 410 Q356 440 376 470 Q394 499 430 504 Q477 510 588 516 Q588 522 589 527 Q592 568 592 613 Q454 610 412 604 Q375 600 354 629 Q333 658 353 689 Q373 719 407 723 Q460 729 589 732 Q589 762 586 775 Q580 814 612 834 Q627 843 644 845 Q655 844 672 835 Q701 814 706 780 Q706 767 709 734 ZM856 -10 Q804 -66 666 -66 Q654 -66 640 -65 Q622 -65 608 -66 Q518 -66 481 -38 Q438 -7 429 45 Q420 95 425 154 Q428 214 423 239 Q414 275 430 304 Q444 331 481 327 Q502 326 516 313 Q525 321 542 325 Q653 351 747 344 Q830 344 873 292 Q917 241 917 155 Q914 53 856 -10 ZM638 52 Q731 46 761 78 Q787 111 793 159 Q793 192 779 211 Q766 231 736 230 Q678 233 570 209 Q545 203 528 209 Q519 154 522 123 Q522 95 546 74 Q567 55 638 52 Z" /><glyph glyph-name="uni884C" unicode="&#x884c;" d="M639 692 Q533 689 502 686 Q465 682 443 711 Q424 740 442 772 Q463 801 497 805 Q538 808 643 813 Q678 812 710 814 Q775 813 829 810 Q870 807 889 772 Q903 736 883 711 Q859 684 824 688 Q743 694 639 692 ZM642 528 Q774 533 876 524 Q917 521 936 486 Q941 473 942 458 Q939 440 930 426 Q906 399 871 402 Q837 405 801 407 Q804 358 808 281 Q811 202 801 79 Q795 30 779 -1 Q763 -31 736 -45 Q711 -66 679 -70 Q664 -70 652 -71 Q591 -71 536 -43 Q505 -28 493 8 Q484 43 510 63 Q533 81 572 68 Q596 62 626 58 Q653 55 663 63 Q672 66 678 111 Q687 221 685 292 Q682 363 678 410 Q657 410 636 409 Q504 406 463 400 Q426 396 404 426 Q385 455 403 486 Q424 516 458 520 Q508 523 642 528 ZM179 721 Q223 744 234 753 Q267 774 299 755 Q331 737 325 700 Q319 666 290 647 Q272 637 229 611 Q184 589 146 571 Q106 558 76 581 Q48 605 56 638 Q65 670 99 684 Q134 696 179 721 ZM90 449 Q140 469 199 501 Q258 533 277 545 Q307 566 341 548 Q373 530 368 494 Q362 460 334 439 Q313 429 262 399 Q268 356 277 246 Q286 135 283 45 Q280 2 248 -17 Q214 -34 187 -14 Q160 7 161 44 Q164 133 157 246 Q151 308 149 343 Q145 342 140 338 Q98 323 69 346 Q47 363 46 389 Q49 397 48 403 Q57 436 90 449 Z" /><glyph glyph-name="uni8BA1" unicode="&#x8ba1;" d="M593 0 Q613 192 610 440 Q610 461 609 480 Q480 477 439 471 Q402 467 381 496 Q360 526 380 557 Q401 586 435 590 Q485 595 606 600 Q605 717 598 764 Q592 802 624 822 Q639 831 655 833 Q670 832 685 823 Q714 804 717 768 L725 601 Q806 601 876 595 Q917 592 936 557 Q941 542 942 528 Q939 512 930 496 Q906 471 871 473 Q804 479 728 480 Q728 458 730 429 Q732 186 715 -5 Q712 -49 676 -64 Q661 -70 648 -71 Q632 -71 615 -59 Q590 -35 593 0 ZM134 660 L106 680 Q75 701 80 740 Q83 779 121 786 Q157 795 187 773 Q195 769 218 752 Q238 736 256 721 Q285 688 274 649 Q264 612 228 607 Q192 604 167 631 Q152 645 134 660 ZM283 453 Q310 407 289 306 Q283 270 271 212 Q261 155 262 122 Q259 92 280 98 Q292 100 311 109 Q352 144 391 101 Q429 58 389 19 Q377 10 355 -2 Q331 -14 302 -21 Q253 -36 205 -11 Q159 13 145 84 Q136 111 146 183 Q154 254 163 286 Q178 351 178 385 Q178 397 157 391 Q138 385 122 376 Q70 352 43 405 Q34 422 35 437 Q35 466 69 484 Q128 520 195 513 Q254 503 283 453 Z" /><glyph glyph-name="uni8DDD" unicode="&#x8ddd;" d="M422 726 Q451 659 452 559 Q452 468 410 417 Q379 383 319 370 Q319 349 323 305 Q329 305 347 306 Q367 306 383 305 Q424 298 438 261 Q449 224 426 201 Q399 179 365 185 Q350 185 334 186 L325 186 Q325 144 323 106 Q347 106 370 105 Q411 104 431 68 Q448 37 427 8 Q403 -19 369 -17 Q305 -14 219 -19 Q134 -24 109 -28 Q72 -34 50 -5 Q41 10 39 27 Q39 42 48 56 Q57 73 73 82 Q73 124 71 176 Q65 244 63 265 Q59 295 83 314 Q107 332 134 317 Q157 302 163 271 Q166 246 173 177 Q176 135 176 100 Q194 100 217 102 Q220 165 221 240 Q218 335 216 366 Q161 368 133 386 Q54 434 48 522 Q48 564 70 611 Q91 659 75 694 Q50 750 104 774 Q145 792 170 764 Q220 784 291 786 Q390 792 422 726 ZM187 634 Q166 579 166 546 Q166 465 266 471 Q307 477 321 500 Q336 523 328 570 Q334 621 326 651 Q317 681 274 684 Q234 680 209 659 Q197 653 190 649 Q190 645 187 634 ZM892 674 Q819 685 726 688 Q656 690 622 689 Q613 631 609 577 Q674 583 729 581 Q785 578 788 578 Q868 578 903 533 Q936 490 932 418 L931 301 Q913 180 824 179 Q731 179 599 196 Q599 172 605 146 Q616 73 697 62 Q724 59 781 65 Q837 71 876 81 Q935 99 951 40 Q954 25 955 14 Q955 -25 915 -34 Q878 -43 811 -51 Q757 -57 710 -59 Q695 -59 686 -58 Q598 -49 551 -4 Q505 40 488 110 Q472 275 482 461 Q494 647 512 767 Q518 817 571 817 Q574 816 577 817 Q598 816 612 807 L736 807 Q831 806 902 796 Q944 790 960 754 Q963 741 966 729 Q963 710 951 694 Q929 670 892 674 ZM595 319 Q718 307 760 305 Q789 305 797 314 Q803 326 809 341 L808 420 Q811 435 801 450 Q789 465 771 466 L717 468 Q681 468 600 459 Q594 386 595 319 Z" /><glyph glyph-name="uni8FBE" unicode="&#x8fbe;" d="M858 494 Q753 505 620 503 Q620 502 618 496 Q578 318 528 182 Q515 140 474 133 Q435 126 415 154 Q394 184 408 219 Q453 342 492 500 Q408 497 375 492 Q335 486 313 518 Q294 550 313 580 Q333 612 369 615 Q416 620 522 624 Q545 732 553 772 Q556 813 593 825 Q602 827 613 829 Q637 828 653 810 Q677 783 673 747 Q664 707 647 627 Q766 627 863 620 Q908 617 925 580 Q931 565 933 551 Q930 533 919 518 Q895 491 858 494 ZM712 253 Q669 283 655 292 Q621 313 624 351 Q627 389 662 399 Q698 410 728 392 L791 349 Q835 316 868 288 Q901 258 892 219 Q883 180 848 174 Q812 168 786 193 Q758 222 712 253 ZM710 -80 Q587 -46 425 -20 Q238 10 202 11 Q199 -1 194 -13 Q175 -60 135 -69 Q96 -78 76 -49 Q57 -19 72 25 Q90 76 115 147 Q139 218 148 346 Q151 366 148 375 Q144 384 125 388 Q119 388 113 384 Q82 374 52 390 Q31 401 29 429 Q32 437 31 445 Q40 484 70 496 Q91 505 118 507 Q198 507 233 471 Q269 435 269 347 Q257 226 241 144 Q238 134 236 124 Q301 118 452 94 Q614 69 736 35 Q775 25 786 -12 Q795 -47 770 -68 Q749 -83 729 -83 Q720 -83 710 -80 ZM140 655 Q122 672 117 677 Q89 701 99 738 Q107 774 145 777 Q180 780 205 758 Q211 752 231 733 Q249 717 264 700 Q287 666 273 630 Q260 594 223 595 Q187 595 168 625 Q156 639 140 655 Z" /><glyph glyph-name="uni8FDB" unicode="&#x8fdb;" d="M729 290 Q662 290 588 285 Q564 285 543 283 Q540 231 535 182 Q532 139 496 123 Q462 107 436 130 Q409 154 414 188 Q417 230 421 274 Q385 271 367 269 Q330 263 308 292 Q287 322 306 353 Q323 382 359 388 Q383 391 427 395 Q427 448 429 505 Q429 544 428 578 L398 573 Q361 567 339 597 Q318 626 336 657 Q354 687 390 692 Q404 695 425 697 Q422 723 422 737 Q416 776 448 796 Q478 817 509 795 Q538 774 541 740 Q541 727 542 707 Q566 709 597 710 L698 716 Q692 751 690 772 Q686 810 713 832 Q728 843 745 844 Q760 843 772 836 Q802 818 810 783 L817 717 Q838 717 861 715 Q903 712 923 679 Q941 645 919 618 Q898 593 861 593 Q845 595 829 595 Q832 553 838 505 L844 409 Q867 409 890 406 Q931 403 950 369 Q956 354 958 340 Q955 324 946 309 Q924 282 888 284 L849 287 Q852 214 850 147 Q847 105 814 85 Q783 67 754 88 Q727 109 728 146 Q728 212 729 290 ZM592 405 Q660 408 724 410 Q721 457 718 507 Q715 555 710 596 Q655 596 595 591 Q568 591 546 588 Q546 548 548 495 Q548 449 547 403 Q568 403 592 405 ZM709 -82 Q586 -48 424 -21 Q246 8 205 8 L198 -13 Q179 -60 139 -69 Q100 -78 80 -49 Q59 -19 76 25 Q94 76 119 147 Q143 218 152 346 Q155 366 152 375 Q146 384 129 388 Q123 388 117 384 Q86 374 56 390 Q35 401 33 429 Q36 437 35 445 Q44 484 74 496 Q95 505 122 507 Q202 507 237 471 Q273 435 272 347 Q262 226 245 144 Q242 135 240 125 Q305 119 453 95 Q612 71 735 37 Q777 25 787 -12 Q796 -50 771 -69 Q750 -84 728 -84 Q719 -84 709 -82 ZM140 655 Q122 672 117 677 Q89 701 99 738 Q107 774 145 777 Q180 780 205 758 Q211 752 231 733 Q249 717 264 700 Q287 666 273 630 Q260 594 223 595 Q187 595 168 625 Q156 639 140 655 Z" /><glyph glyph-name="uni95EF" unicode="&#x95ef;" d="M451 622 Q510 625 543 623 Q626 616 669 572 Q740 500 717 402 Q696 339 660 326 Q626 313 602 341 Q581 368 594 402 Q614 459 578 490 Q560 505 522 512 Q492 514 443 505 Q394 496 352 482 Q316 476 294 502 Q270 529 285 563 Q300 595 341 605 Q391 617 451 622 ZM397 121 Q448 132 464 137 Q499 148 525 121 Q549 96 536 62 Q521 29 487 20 Q468 14 414 3 Q362 -9 320 -14 Q277 -17 255 16 Q231 46 252 76 Q270 106 306 107 Q344 110 397 121 ZM300 336 Q309 381 318 421 Q330 474 389 463 Q445 451 439 392 Q429 358 419 322 Q446 325 464 326 Q544 337 623 306 Q703 275 733 173 Q745 119 734 63 Q724 8 692 -41 Q673 -71 644 -72 Q626 -72 611 -63 Q565 -36 579 8 Q629 89 613 142 Q600 217 442 198 Q408 195 366 181 Q329 166 301 191 Q274 217 283 252 L300 336 ZM104 717 L84 737 Q57 763 69 795 Q78 827 113 830 Q113 829 117 830 Q147 829 170 809 L193 785 Q208 767 222 753 Q242 719 228 687 Q213 654 180 656 Q147 659 129 687 Q120 701 104 717 ZM77 314 Q65 494 57 546 Q57 552 56 559 Q56 588 80 606 Q110 627 141 609 Q170 591 176 556 Q185 489 196 311 Q208 134 201 -2 Q198 -46 165 -63 Q150 -72 137 -71 Q119 -71 104 -60 Q79 -39 80 -2 Q86 136 77 314 ZM561 809 Q672 809 732 798 Q818 791 861 745 Q906 702 915 650 Q939 523 939 391 Q938 207 893 11 Q872 -54 834 -68 Q822 -71 812 -72 Q788 -72 774 -53 Q752 -23 766 11 Q865 328 790 621 Q787 645 769 661 Q751 676 709 683 Q657 692 553 689 Q450 686 363 668 Q329 661 304 688 Q280 715 295 750 Q310 785 353 795 Q446 810 561 809 Z" /><glyph glyph-name="uni9875" unicode="&#x9875;" d="M403 234 Q456 360 471 400 Q483 439 521 444 Q559 450 577 419 Q595 386 585 353 Q567 302 512 176 Q460 52 405 -42 Q383 -80 343 -81 Q301 -81 289 -49 Q274 -16 293 16 Q346 106 403 234 ZM703 -42 Q630 -5 585 8 Q548 20 540 57 Q534 93 565 113 Q598 133 632 121 Q647 117 689 101 Q730 86 761 70 Q799 49 800 9 Q800 -33 769 -46 Q736 -61 703 -42 ZM452 815 Q511 814 568 817 Q730 816 864 806 Q906 803 924 768 Q930 753 932 739 Q929 723 918 707 Q894 680 859 684 Q730 696 573 697 Q573 694 572 689 Q569 679 561 645 L555 627 Q629 630 674 626 Q758 619 803 573 Q847 530 856 479 Q880 352 842 211 Q821 147 783 132 Q746 119 724 147 Q700 177 715 211 Q756 334 731 449 Q730 473 710 489 Q692 504 650 511 Q589 517 476 501 Q370 488 280 463 Q280 399 287 321 Q296 213 303 180 Q309 141 279 118 Q251 96 218 114 Q185 132 180 168 Q174 210 163 319 Q154 429 155 513 Q155 557 191 577 Q218 592 241 582 Q247 585 257 586 Q334 604 424 615 Q424 626 431 636 Q440 656 448 688 Q448 690 450 696 L442 696 Q205 690 135 682 Q96 678 76 707 Q67 722 65 738 Q65 753 75 768 Q96 797 130 801 Q220 810 452 815 Z" /><glyph glyph-name="uni9996" unicode="&#x9996;" d="M788 28 Q706 -62 482 -63 Q472 -63 461 -63 Q455 -63 452 -63 Q277 -63 209 -9 Q142 47 129 128 Q117 208 130 304 Q142 397 133 438 Q124 473 139 500 Q153 527 188 523 Q209 522 222 510 Q231 518 248 522 Q343 543 433 553 Q433 556 435 559 Q440 576 446 601 L438 601 Q195 595 124 584 Q87 580 64 609 Q57 624 54 640 Q54 654 63 669 Q84 699 118 703 Q160 708 231 711 Q231 714 230 717 Q221 738 216 745 Q198 781 222 810 Q239 836 279 829 Q312 819 328 787 Q331 778 344 753 L358 718 Q400 718 449 720 Q556 723 655 722 Q658 736 666 756 Q672 780 674 788 Q680 826 718 835 Q727 834 734 837 Q758 836 774 815 Q795 787 788 752 Q785 743 779 719 Q827 716 871 712 Q912 709 932 674 Q938 659 939 646 Q938 628 926 613 Q902 588 867 590 Q732 604 568 603 Q565 593 563 574 Q562 568 560 560 Q601 560 643 556 Q760 555 819 479 Q878 403 876 282 Q873 126 788 28 ZM266 373 Q310 387 379 396 Q447 404 480 403 Q545 403 577 373 Q616 334 564 282 Q557 275 537 260 Q519 245 498 226 L474 201 L470 195 Q470 192 478 192 L488 192 Q503 192 545 198 Q583 204 608 213 Q632 221 645 225 Q668 230 686 208 Q703 187 694 158 Q687 130 648 120 Q635 116 600 107 Q564 100 503 91 Q442 84 395 83 Q338 83 324 110 Q309 139 314 162 Q317 186 343 216 Q352 225 373 242 Q394 260 411 271 Q426 283 436 288 Q447 297 449 298 Q446 301 427 301 Q400 301 359 296 Q319 290 276 274 Q254 267 236 260 Q227 131 285 83 Q324 49 457 50 Q648 47 701 115 Q754 184 756 283 Q759 354 728 400 Q695 445 631 447 Q505 459 274 410 Q258 407 246 407 Q246 391 245 367 Q254 370 266 373 Z" /><glyph glyph-name="uni9AD8" unicode="&#x9ad8;" d="M450 830 Q465 842 484 844 Q496 843 510 837 Q542 819 549 784 Q728 784 872 771 Q910 768 925 736 Q928 726 931 713 Q928 697 919 684 Q898 662 868 664 Q681 684 440 680 Q197 676 126 666 Q93 663 74 689 Q65 701 64 716 Q64 730 73 741 Q91 768 121 771 Q210 777 428 783 Q428 812 450 830 ZM176 297 Q314 323 480 329 Q648 335 733 323 Q813 317 855 274 Q896 234 905 186 Q920 111 902 25 Q883 -37 848 -48 Q812 -63 791 -34 Q770 -9 783 25 Q804 94 788 157 Q785 181 768 195 Q750 209 712 216 Q630 230 474 218 Q333 209 210 183 Q207 147 210 103 Q210 33 215 10 Q218 -29 190 -48 Q162 -69 132 -48 Q102 -30 100 5 Q97 32 94 105 Q91 177 95 233 Q98 275 132 292 Q153 303 173 296 L176 297 ZM516 -77 Q410 -77 363 -74 Q267 -68 268 7 Q268 30 281 59 Q293 85 295 106 Q292 160 344 161 Q359 161 372 155 Q458 167 536 167 Q610 164 671 146 Q730 130 727 36 Q730 -38 664 -56 Q600 -73 516 -77 ZM372 27 Q375 -2 512 11 Q550 11 580 17 Q610 23 611 48 Q608 77 583 81 Q507 90 408 72 Q396 71 388 70 Q385 67 385 63 Q373 45 372 27 ZM523 368 Q345 362 284 372 Q158 395 158 475 Q158 498 173 522 Q188 542 187 561 Q184 614 244 618 Q262 618 275 615 Q284 618 294 619 Q617 663 759 618 Q830 599 835 506 Q832 412 746 389 Q661 368 523 368 ZM352 470 Q418 461 520 460 Q696 460 694 507 Q694 528 656 538 Q616 549 545 549 Q448 549 339 533 Q312 530 294 530 Q285 515 285 499 Q285 478 352 470 Z" /></font>
</defs>
</svg>
